<svg xmlns="http://www.w3.org/2000/svg" viewBox="0 0 542.73 163.92">
  <defs>
    <style>
      .cls-2{fill:none;stroke:#1971c2;stroke-linecap:round}.cls-3{isolation:isolate}.cls-4{fill:#1971c2;stroke-width:0}.cls-2{stroke-width:2px}
    </style>
  </defs>
  <path class="cls-2" d="M51.48 22.47c45.23-.74 87.39-2.73 140 0m-140 0c49.98-.72 100.01-1.06 140 0m0 0c21.09-1.5 28.89 8.47 30 30m-30-30c20.3.51 28.66 11.09 30 30m0 0c-1.59 23.58.46 44.42 0 60m0-60c.02 19.91.46 41.26 0 60m0 0c1 19.58-11.14 30.28-30 30m30-30c1.65 19.57-12.26 30.52-30 30m0 0c-33.12 1.1-63.2-.93-140 0m140 0c-51.15-.5-101.4-.27-140 0m0 0c-20.86-1.55-31.69-10.86-30-30m30 30c-20.69-1.85-27.98-8.92-30-30m0 0c-2.42-17.7-1.34-37.47 0-60m0 60c.12-23.84-1.37-46.23 0-60m0 0c0-19.46 10.91-30.27 30-30m-30 30c-.99-19.38 8.18-28.57 30-30"/>
  <g class="cls-3">
    <path class="cls-4" d="M76.7 86.43v-8.98l-.64-.88c-.07-.57.23-1.01.88-1.32.59-.21 1.43-.43 2.54-.66 1.11-.23 1.91-.41 2.4-.56.75-.31 1.67-.51 2.78-.62.04.01.16 0 .36-.01.2-.02.45-.04.74-.07.29-.03.54-.04.74-.04.33 0 .57.04.7.12.31 0 .59.15.86.44.27.29.36.6.28.92.05.16.03.32-.06.47-.09.15-.23.26-.4.33-.16.04-.32 0-.48-.12l-.22-.16c-.08-.07-.16-.11-.24-.12-1.8-.19-4.08.19-6.84 1.14-.09.05-.28.13-.55.23s-.42.15-.45.15c-.12.04-.25.13-.38.26l-.26.26v1.26c0 1.03.05 1.79.14 2.28.12 0 .23 0 .32.02l1 .08c.09.01.2.02.32.02.44-.04 1.03-.16 1.76-.36s1.33-.33 1.8-.38c.92-.11 1.45-.16 1.6-.16.33 0 .63.05.9.14.24.13.37.31.4.54.03.23-.06.43-.26.6-.2.11-.62.21-1.27.31s-1.02.16-1.13.19c-.4.15-1.05.33-1.95.56-.9.23-1.48.38-1.73.46-.04 0-.19.06-.45.17s-.4.18-.43.21h-.14l-.62-.12-.12.12c-.09 1.27-.05 2.19.12 2.78v.14c.03.8-.14 1.29-.5 1.48-.15.12-.39.21-.72.26-.36-.25-.57-.47-.64-.64-.03-.07-.04-.14-.04-.22-.08-.19-.12-.36-.12-.52ZM87.84 82.11c.09-.59.29-1.09.6-1.52s.74-.89 1.3-1.4c.48-.24 1.1-.36 1.86-.36.93 0 1.7.16 2.3.48 1.13.71 1.94 1.3 2.42 1.78 0 .04 0 .14.02.3.01.16 0 .29-.01.4-.02.11-.07.17-.15.18-.43.07-.86 0-1.3-.2-.11-.07-.28-.17-.52-.31-.24-.14-.42-.24-.54-.31-.12-.07-.28-.13-.48-.2-.2-.07-.39-.11-.58-.12-.11 0-.28 0-.52-.01h-.57c-.14 0-.31.03-.51.07s-.38.11-.54.2l-.12.12c-.48.64-.78 1.13-.9 1.48.03.4.03.76 0 1.07-.03.31-.03.67 0 1.07.02.4.07.75.15 1.06.09.16.15.32.16.47.01.15-.02.33-.1.53s-.14.34-.17.41-.12.23-.27.47c-.12.16-.27.24-.44.24-.19 0-.38-.08-.58-.24-.32-.2-.57-.57-.76-1.12 0-2.11.09-3.62.26-4.54Z"/>
    <path class="cls-4" d="M96.3 84.81v-2.16c-.09-.15-.14-.36-.14-.64s.05-.49.14-.62c.2-.15.43-.3.7-.46s.56-.33.88-.52.55-.33.7-.42c.56-.33 1.26-.5 2.1-.5.99 0 1.94.21 2.85.64.91.43 1.67 1.01 2.27 1.76.69.95.86 1.83.5 2.66-.85 1.47-2.12 2.39-3.8 2.78-.21.08-.45.14-.71.18s-.47.06-.63.07h-.76c-.35 0-.57-.01-.68-.01-.68-.15-1.15-.25-1.41-.32s-.54-.2-.83-.41c-.29-.21-.51-.45-.65-.73-.14-.28-.32-.71-.53-1.3Zm1.9 0c.09.19.25.39.46.61.21.22.4.35.56.39.31.16.75.24 1.32.24.53 0 1.09-.08 1.67-.23.58-.15 1.12-.42 1.61-.8.49-.38.77-.83.84-1.35.01-.16.02-.29.02-.38s-.04-.2-.13-.33-.16-.22-.23-.29c-.07-.07-.16-.15-.28-.26-.12-.11-.21-.19-.26-.26-1.13-.63-1.99-.94-2.58-.94-.29 0-.57.06-.84.18-.12.04-.25.13-.38.26-.39.36-.64.57-.76.62-.04.04-.12.11-.23.22-.11.11-.21.2-.29.27s-.16.16-.23.26-.12.19-.13.27c-.08.15-.13.31-.14.5-.01.19 0 .36 0 .51s.02.32 0 .51ZM112.32 82.03c-.88.75-1.68 1.67-2.4 2.78-.03.05-.2.34-.51.87s-.52.91-.63 1.15c-.15.24-.36.33-.64.26l-.88-.9v-.62c.07-.35.14-1.02.22-2.02s.13-1.59.16-1.78c0-.07 0-.13-.02-.18l-.08-.52c-.01-.05-.02-.11-.02-.18v-.08c0-.21.07-.39.21-.52.14-.13.32-.19.53-.18.43 0 .73.13.9.4.09.36.14.83.14 1.4v.45c0 .18-.01.28-.01.29.11-.08.32-.28.65-.61.33-.33.53-.54.61-.65.09-.12.21-.28.35-.49.14-.21.28-.39.41-.54.13-.15.29-.3.48-.45.07-.09.15-.16.24-.21.09-.05.18-.07.27-.08.09 0 .18-.01.29-.01h.32c.15-.05.3-.04.45.03s.32.22.49.44c.17.22.28.37.33.45.05.08.15.25.31.5.41.96.62 2.01.62 3.14l.38 1.64s.04.17.13.4.13.35.13.36c.03.36-.06.61-.26.76-.04.01-.14.05-.29.11-.15.06-.27.09-.35.09-.13 0-.21-.07-.24-.2-.03-.04-.12-.19-.27-.45s-.28-.44-.37-.55c-.25-.88-.42-1.73-.5-2.54-.04-.09-.1-.3-.17-.61s-.14-.53-.21-.65c-.28-.32-.47-.49-.56-.52-.11 0-.17 0-.2.02ZM119.5 83.71l.04-1.64c0-.39-.03-.98-.1-1.78-.08-.31-.15-.49-.22-.54-.88.07-1.55.21-2.02.44-.12 0-.29.05-.52.14-.23.09-.42.13-.58.1-.09-.04-.19-.1-.28-.18-.09-.08-.19-.18-.29-.29-.1-.11-.18-.2-.25-.25-.05-.13-.07-.32-.06-.56.01-.24.06-.42.14-.54l.66-.58c.69-.01 1.73-.15 3.1-.4l.14-.16.04-3.14c.31-.33.69-.45 1.14-.36.36.28.56.63.6 1.04.04.08.07.41.08 1 .01.59.07.93.16 1.02.01 0 .08.02.19.05s.18.06.19.07c.27-.03.61-.08 1.02-.15.41-.07.71-.12.9-.13.19-.01.53 0 1.02.02l.92.04c.57.08.79.41.64 1-.23.23-.4.35-.52.38-.31.03-.62.07-.94.12-.32.05-.72.14-1.19.25-.47.11-.79.18-.95.21l-.04.02c-.35.01-.74.1-1.18.26l-.1.14c0 .16 0 .42-.03.79-.02.37-.02.68 0 .94.01.26.05.52.12.79 0 2.33.12 3.79.36 4.36.27.24.51.37.72.38.12 0 .27-.02.46-.06.05-.01.13-.03.24-.06.11-.03.18-.04.22-.05.04 0 .1-.02.18-.05.08-.03.14-.05.17-.06.03-.01.08-.04.14-.07.06-.03.11-.07.14-.11s.08-.09.13-.14c.05-.05.1-.11.15-.18s.1-.14.15-.23c.05-.09.11-.18.18-.29-.01-.07 0-.23.06-.48.05-.25.09-.41.12-.48.15-.41.41-.61.8-.6.19-.03.33 0 .42.1s.18.26.26.5l.1.34c-.09.65-.19 1.06-.3 1.22-.27.53-.47.9-.61 1.1-.14.2-.39.41-.75.63-.36.22-.91.45-1.66.69-.04.01-.19.07-.46.17s-.47.15-.62.15c-.61-.03-1.07-.23-1.36-.6-.04-.08-.16-.29-.36-.63s-.34-.64-.42-.9-.1-.54-.06-.83c-.01-.24-.05-.59-.1-1.04-.05-.45-.09-.74-.1-.86-.01-.01-.02-.03-.02-.04ZM127.86 82.21c.03-.32.39-.65 1.1-.98.21-.05.47-.08.78-.08.27 0 .83.05 1.68.16h.1c.13.01.36 0 .67-.06.31-.05.56-.06.75-.02.09.01.28.02.57.03.29 0 .52.02.7.04.18.02.32.05.41.09.39.27.54.57.46.92-.2.24-.56.51-1.08.82-.12.01-.27 0-.44 0-.17-.02-.37-.05-.6-.1-.23-.05-.39-.08-.48-.09h-.78c-.13.01-.35.05-.65.11-.3.06-.57.11-.82.14-.25.03-.47.04-.67.03-.45.03-.85-.03-1.2-.18-.36-.36-.53-.63-.5-.82ZM137.72 81.77c.96-1.23 2.01-2.03 3.16-2.4.73-.09 1.12-.14 1.16-.14.83.03 1.55.28 2.16.75.61.47.94 1.12.98 1.93.01.71-.27 1.35-.85 1.94s-1.22.91-1.93.96c-.27.09-.55.14-.86.14-.69 0-1.46-.25-2.3-.76-.25-.25-.42-.38-.5-.38-.05-.03-.1-.03-.14 0-.44.67-.65 1.17-.64 1.52.15.87.61 1.6 1.4 2.21.79.61 1.62.88 2.5.83.13.05.37.06.7 0 .33-.05.56-.08.67-.11s.34-.09.68-.19.58-.17.71-.21c.47-.19 1.09-.31 1.86-.36h.14c.09-.03.18 0 .26.06.08.07.13.17.14.3v.74c-.48.55-1.07.84-1.78.88-.15.04-.41.11-.79.22-.38.11-.67.18-.86.23-.19.05-.45.09-.76.14-.31.05-.6.06-.85.05-1.17.05-2.3-.25-3.38-.9-.99-.51-1.75-1.39-2.28-2.64-.2-.79-.17-1.55.1-2.3.27-.75.7-1.59 1.3-2.52Zm1.56.96c.28 0 .52.02.72.06.12.07.24.12.35.15.11.03.25.06.42.08.17.02.28.03.33.03h.8c.69-.21 1.15-.51 1.38-.9.04-.15.04-.28 0-.39s-.11-.21-.23-.29-.23-.14-.34-.18c-.11-.04-.25-.09-.43-.15s-.31-.1-.39-.13c-.32 0-.65.09-.98.27-.33.18-.6.36-.8.53-.2.17-.45.41-.76.72 0 .01-.01.04-.04.09s-.04.08-.04.11ZM152.12 82.03c-.88.75-1.68 1.67-2.4 2.78-.03.05-.2.34-.51.87s-.52.91-.63 1.15c-.15.24-.36.33-.64.26l-.88-.9v-.62c.07-.35.14-1.02.22-2.02s.13-1.59.16-1.78c0-.07 0-.13-.02-.18l-.08-.52c-.01-.05-.02-.11-.02-.18v-.08c0-.21.07-.39.21-.52.14-.13.32-.19.53-.18.43 0 .73.13.9.4.09.36.14.83.14 1.4v.45c0 .18-.01.28-.01.29.11-.08.32-.28.65-.61.33-.33.53-.54.61-.65.09-.12.21-.28.35-.49.14-.21.28-.39.41-.54.13-.15.29-.3.48-.45.07-.09.15-.16.24-.21.09-.05.18-.07.27-.08.09 0 .18-.01.29-.01h.32c.15-.05.3-.04.45.03s.32.22.49.44c.17.22.28.37.33.45.05.08.15.25.31.5.41.96.62 2.01.62 3.14l.38 1.64s.04.17.13.4.13.35.13.36c.03.36-.06.61-.26.76-.04.01-.14.05-.29.11-.15.06-.27.09-.35.09-.13 0-.21-.07-.24-.2-.03-.04-.12-.19-.27-.45s-.28-.44-.37-.55c-.25-.88-.42-1.73-.5-2.54-.04-.09-.1-.3-.17-.61s-.14-.53-.21-.65c-.28-.32-.47-.49-.56-.52-.11 0-.17 0-.2.02ZM156.06 84.05v-.14c.13-1.07.64-2.01 1.52-2.83.88-.82 1.85-1.14 2.9-.97.49.03.94.21 1.33.56.39.35.58.75.57 1.22 0 .13-.04.22-.12.25-.08.03-.19.04-.34.02-.15-.02-.25-.02-.3-.01-.68-.24-1.31-.33-1.9-.26-1.36.69-2.03 1.58-2.02 2.66-.11.44-.01.79.28 1.04.29.25.66.38 1.1.38.31 0 .57-.05.78-.16 1.43-.75 2.61-2.18 3.54-4.3 0-.29 0-.56.02-.8l.08-2.44c.01-.24.02-.51.02-.8.12-1.29.25-2.14.38-2.54.01-.19.05-.44.1-.75s.11-.64.17-.98c.06-.34.1-.56.11-.67.05-.39.27-.64.64-.76.21.01.45.08.7.21.25.13.39.27.42.43.07.16.11.34.13.54.02.2.02.38.01.54-.01.16-.01.35 0 .56-.01.09 0 .35.05.77.05.42.07.67.07.75 0 .49-.09 1.46-.26 2.9-.04.28-.17.68-.38 1.2-.21.52-.34.92-.38 1.2v1.28s.02.03.02.06l.1.24.02.06.38 1.28c.08.32.18.63.3.93.12.3.27.67.46 1.1.19.43.31.72.38.87.03.41-.06.7-.26.86-.05.08-.13.12-.22.12-.07 0-.29-.11-.66-.34-.13-.13-.26-.29-.39-.47s-.23-.34-.31-.49-.18-.35-.29-.61c-.11-.26-.19-.45-.23-.56s-.11-.32-.22-.62-.17-.48-.2-.55c-.17.11-.46.42-.85.93-.39.51-.62.8-.67.85-.96.99-1.85 1.61-2.66 1.88-.81.11-1.31.16-1.48.16-.65 0-1.17-.17-1.56-.52-.19-.15-.35-.32-.5-.52-.21-.35-.34-.79-.39-1.34s-.04-1.02.01-1.42Z"/>
  </g>
  <path class="cls-2" d="M351.48 22.47c30.71-.43 58.38-.63 140 0m-140 0c44.27.44 89.64 1.21 140 0m0 0c21.9-1.26 29.07 9.46 30 30m-30-30c18.72 2 29.25 9.25 30 30m0 0c-1.76 19.39-1.73 37.39 0 60m0-60c-.76 23.11-.64 45.45 0 60m0 0c.26 18.94-8.37 29.23-30 30m30-30c-1.78 18.97-12 29.87-30 30m0 0c-53 .13-105.5.07-140 0m140 0c-31.06-.71-61.52-1.46-140 0m0 0c-20.9-.29-29.68-10.38-30-30m30 30c-19.07-.2-28.56-10.53-30-30m0 0c.03-13.83-2.21-24.8 0-60m0 60c1.02-15.77-.04-32.22 0-60m0 0c-1.7-19.36 9.52-29.73 30-30m-30 30c-1.48-18.03 11.55-29.47 30-30"/>
  <g class="cls-3">
    <path class="cls-4" d="M378.03 86.23c.27-.17.55-.26.84-.26.12 0 .56.09 1.32.26l1.12.52h.06c-.17-.47-.36-1.99-.56-4.56 0-.15-.01-.69-.04-1.64s-.04-1.66-.05-2.13 0-1.08.04-1.82.1-1.36.19-1.85c.03-.21.05-.36.08-.44l-.6-.1H379.5c-.1 0-.18-.02-.25-.03s-.14-.04-.23-.07c-.09-.03-.16-.08-.23-.13-.25-.19-.38-.31-.38-.38v-1.02s.05-.09.14-.19c.09-.1.17-.16.24-.19 1.01.03 1.77.15 2.28.38.27.04.78.11 1.55.2.77.09 1.34.17 1.71.24s.86.17 1.47.3c.61.13 1.15.31 1.63.52.48.21.93.47 1.36.76 1.45 1.13 2.13 2.16 2.04 3.08.08.48.01.96-.2 1.44-.21.48-.44.86-.68 1.13-.24.27-.59.63-1.04 1.07.16.16.45.42.88.78s.73.65.9.86c.76 1.13.97 2.1.62 2.9-.37.76-.94 1.37-1.69 1.83s-1.58.73-2.47.81c-1.08.19-2.23.28-3.44.28-1.01 0-1.98-.05-2.9-.14-.09 0-.37-.02-.84-.06s-.73-.07-.8-.08c-.25-.03-.46-.06-.62-.1-.16-.04-.32-.12-.48-.23-.16-.11-.27-.26-.34-.43-.17-.79-.07-1.29.3-1.5Zm7.6-11.26c-.69-.21-1.82-.39-3.38-.52.16.97.26 2.91.3 5.82.09.01.15.02.16.02.21-.11.59-.15 1.14-.12.03 0 .13.01.3.04.17.03.33.05.48.07.15.02.25.02.3.01.81-.07 1.5-.19 2.05-.36.55-.17 1.07-.47 1.55-.9.55-.32.67-.95.38-1.9-.32-.51-.79-.96-1.4-1.35-.61-.39-1.24-.66-1.88-.81Zm-2.42 11.2c0 .37-.01.59-.04.66 1.35.05 2.25.07 2.7.04.33-.03.59-.05.76-.07.17-.02.43-.06.77-.12s.61-.14.82-.24c.21-.1.43-.22.66-.36.23-.14.42-.33.55-.56.13-.23.21-.5.24-.79-.23-.91-1.03-1.5-2.4-1.78-.32-.13-.67-.23-1.04-.28-.37-.05-.8-.09-1.28-.12s-.85-.06-1.1-.1c-.12 0-.46.08-1.02.24-.03.13.02.72.13 1.75s.2 1.61.25 1.73ZM400.41 84.59c-.11.08-.23.25-.38.5-.71.77-1.4 1.39-2.07 1.85-.67.46-1.4.68-2.19.67-.41.05-.84 0-1.28-.17-.44-.17-.79-.4-1.04-.71-.12-.19-.2-.32-.25-.39s-.12-.19-.21-.36c-.09-.17-.16-.3-.19-.41-.03-.11-.07-.23-.11-.38-.04-.15-.06-.29-.06-.43s.02-.28.06-.43c.01-.45.16-.91.45-1.38.29-.47.58-.84.87-1.12.29-.28.67-.61 1.14-1 .09-.07.16-.12.2-.16.56-.45 1.32-.68 2.28-.68.2 0 .83.05 1.9.16.03.03.12.07.27.14s.26.14.33.21c.07.07.07.17.02.29l.26.26c.4.17.65.34.76.5.67 1.36 1.25 2.45 1.76 3.28.05.07.22.22.51.45.29.23.46.38.51.45.11.08.24.19.39.33.15.14.28.24.39.31.11.07.23.11.36.12.01.01.1.09.26.24.01.04 0 .09-.01.15-.02.06-.04.13-.07.21-.03.08-.05.13-.06.16-.13.2-.43.36-.88.48-.16 0-.27 0-.33.03-.06.02-.15 0-.28-.04-.13-.05-.21-.08-.26-.1-.05-.02-.14-.07-.27-.15-.13-.08-.23-.14-.3-.18l-.08-.04c-.33-.28-.79-.76-1.37-1.45s-.92-1.09-1.03-1.21Zm-5.82.62c.24.36.6.54 1.08.54.23 0 .54-.05.94-.16.65-.24 1.25-.66 1.78-1.26.52-.72.81-1.35.88-1.9 0-.04.03-.2.08-.47.05-.27.07-.46.06-.57-.27.07-.65.12-1.15.15s-.88.08-1.15.13c-.35.05-.7.22-1.06.49-.36.27-.63.53-.82.77-.19.24-.44.58-.76 1.02-.23.28-.19.7.12 1.26ZM405.91 83.57c.09-.63.28-1.15.55-1.58.27-.43.68-.87 1.23-1.34.45-.52 1-.91 1.64-1.18s1.27-.34 1.9-.22c.28-.01.57.06.87.22.3.16.51.3.64.42s.34.33.65.64c.31.41.43 1.05.38 1.9-.17.32-.35.49-.52.5-.04 0-.15 0-.34.03-.19.02-.33 0-.43-.03-.1-.04-.18-.13-.23-.26-.27-.71-.47-1.1-.62-1.18-.2-.13-.43-.21-.7-.22-.27-.01-.51 0-.72.02-.32.08-.63.24-.94.49-.31.25-.54.47-.69.66-.15.19-.37.48-.65.87 0 .04-.02.17-.07.4s-.06.43-.04.62c.02.19.1.31.25.38.43.52.88.87 1.36 1.04.57.23 1.59.47 3.06.72l2.42.52c.09.08.18.2.27.37.09.17.12.29.11.37-.05.17-.18.35-.39.52-.21.17-.42.29-.63.36-.52.05-1.19-.03-2.02-.26-1.45-.27-2.43-.47-2.92-.62-1.31-.43-2.28-1.05-2.92-1.88-.43-.57-.59-1.33-.5-2.28ZM418.81 84.61c-.16-.44-.29-.69-.38-.74 0-.01-.01-.02-.04-.02h-.16s-.03.37-.1 1.03-.17 1.12-.32 1.39c-.28.64-.58 1.05-.9 1.24-.49.08-.83-.04-1-.36-.36-.57-.41-1.21-.14-1.9.25-.19.42-.37.5-.55.08-.18.13-.46.14-.83.01-.15-.03-.49-.12-1.02v-5.7c-.07-.25-.11-.52-.13-.81-.02-.29-.02-.55 0-.79s.01-.51 0-.8c.12-.2.31-.29.58-.28.37-.09.69.21.94.92 0 .03.02.15.05.38.03.23.07.49.12.78.05.29.08.49.09.6.08.37.12.79.12 1.26v2.42c.07.12.15.16.26.12.57-.23 1.07-.42 1.5-.59.43-.17.72-.28.87-.35s.32-.13.49-.19c.17-.06.37-.13.6-.21.07-.03.22-.1.46-.21s.41-.19.51-.24c.1-.05.24-.09.42-.14.18-.05.35-.07.51-.07.23 0 .45.05.68.14.09.11.2.28.31.52.11.24.16.41.15.5-.07.09-.15.17-.26.23-.11.06-.2.1-.29.12-.09.02-.21.05-.37.08s-.28.06-.36.07c-.51.19-.81.29-.9.32.01.01 0 .03-.03.06s-.11.08-.22.15-.26.16-.45.27c-.19.11-.45.25-.79.44s-.74.39-1.19.62v.12c.59 1.55 1.35 2.52 2.28 2.92.13.03.35-.02.64-.14.4-.03.65.06.76.26.28.29.32.89.12 1.78-.4.36-.82.52-1.26.48-1.43-.63-2.65-1.72-3.68-3.28ZM425.79 82.21c.03-.32.39-.65 1.1-.98.21-.05.47-.08.78-.08.27 0 .83.05 1.68.16h.1c.13.01.36 0 .67-.06.31-.05.56-.06.75-.02.09.01.28.02.57.03.29 0 .52.02.7.04.18.02.32.05.41.09.39.27.54.57.46.92-.2.24-.56.51-1.08.82-.12.01-.27 0-.44 0-.17-.02-.37-.05-.6-.1-.23-.05-.39-.08-.48-.09h-.78c-.13.01-.35.05-.65.11-.3.06-.57.11-.82.14-.25.03-.47.04-.67.03-.45.03-.85-.03-1.2-.18-.36-.36-.53-.63-.5-.82ZM435.65 81.77c.96-1.23 2.01-2.03 3.16-2.4.73-.09 1.12-.14 1.16-.14.83.03 1.55.28 2.16.75.61.47.94 1.12.98 1.93.01.71-.27 1.35-.85 1.94s-1.22.91-1.93.96c-.27.09-.55.14-.86.14-.69 0-1.46-.25-2.3-.76-.25-.25-.42-.38-.5-.38-.05-.03-.1-.03-.14 0-.44.67-.65 1.17-.64 1.52.15.87.61 1.6 1.4 2.21.79.61 1.62.88 2.5.83.13.05.37.06.7 0s.56-.08.67-.11.34-.09.68-.19.58-.17.71-.21c.47-.19 1.09-.31 1.86-.36h.14c.09-.03.18 0 .26.06.08.07.13.17.14.3v.74c-.48.55-1.07.84-1.78.88-.15.04-.41.11-.79.22-.38.11-.67.18-.86.23s-.45.09-.76.14c-.31.05-.6.06-.85.05-1.17.05-2.3-.25-3.38-.9-.99-.51-1.75-1.39-2.28-2.64-.2-.79-.17-1.55.1-2.3.27-.75.7-1.59 1.3-2.52Zm1.56.96c.28 0 .52.02.72.06.12.07.24.12.35.15.11.03.25.06.42.08.17.02.28.03.33.03h.8c.69-.21 1.15-.51 1.38-.9.04-.15.04-.28 0-.39s-.11-.21-.23-.29-.23-.14-.34-.18-.25-.09-.43-.15-.31-.1-.39-.13c-.32 0-.65.09-.98.27-.33.18-.6.36-.8.53-.2.17-.45.41-.76.72 0 .01-.01.04-.04.09-.03.05-.04.08-.04.11ZM450.05 82.03c-.88.75-1.68 1.67-2.4 2.78-.03.05-.2.34-.51.87s-.52.91-.63 1.15c-.15.24-.36.33-.64.26l-.88-.9v-.62c.07-.35.14-1.02.22-2.02.08-1 .13-1.59.16-1.78 0-.07 0-.13-.02-.18l-.08-.52c-.01-.05-.02-.11-.02-.18v-.08c0-.21.07-.39.21-.52.14-.13.32-.19.53-.18.43 0 .73.13.9.4.09.36.14.83.14 1.4v.74c.11-.08.32-.28.65-.61s.53-.54.61-.65c.09-.12.21-.28.35-.49.14-.21.28-.39.41-.54.13-.15.29-.3.48-.45.07-.09.15-.16.24-.21.09-.05.18-.07.27-.08s.18-.01.29-.01h.32c.15-.05.3-.04.45.03s.32.22.49.44c.17.22.28.37.33.45.05.08.15.25.31.5.41.96.62 2.01.62 3.14l.38 1.64s.04.17.13.4.13.35.13.36c.03.36-.06.61-.26.76-.04.01-.14.05-.29.11-.15.06-.27.09-.35.09-.13 0-.21-.07-.24-.2-.03-.04-.12-.19-.27-.45s-.28-.44-.37-.55c-.25-.88-.42-1.73-.5-2.54-.04-.09-.1-.3-.17-.61s-.14-.53-.21-.65c-.28-.32-.47-.49-.56-.52-.11 0-.17 0-.2.02ZM453.99 84.05v-.14c.13-1.07.64-2.01 1.52-2.83.88-.82 1.85-1.14 2.9-.97.49.03.94.21 1.33.56s.58.75.57 1.22c0 .13-.04.22-.12.25s-.19.04-.34.02c-.15-.02-.25-.02-.3-.01-.68-.24-1.31-.33-1.9-.26-1.36.69-2.03 1.58-2.02 2.66-.11.44-.01.79.28 1.04s.66.38 1.1.38c.31 0 .57-.05.78-.16 1.43-.75 2.61-2.18 3.54-4.3 0-.29 0-.56.02-.8l.08-2.44c.01-.24.02-.51.02-.8.12-1.29.25-2.14.38-2.54.01-.19.05-.44.1-.75s.11-.64.17-.98c.06-.34.1-.56.11-.67.05-.39.27-.64.64-.76.21.01.45.08.7.21.25.13.39.27.42.43.07.16.11.34.13.54.02.2.02.38 0 .54-.01.16-.01.35 0 .56-.01.09 0 .35.05.77s.07.67.07.75c0 .49-.09 1.46-.26 2.9-.04.28-.17.68-.38 1.2-.21.52-.34.92-.38 1.2v1.28s.02.03.02.06l.1.24.02.06.38 1.28c.08.32.18.63.3.93s.27.67.46 1.1c.19.43.31.72.38.87.03.41-.06.7-.26.86-.05.08-.13.12-.22.12-.07 0-.29-.11-.66-.34-.13-.13-.26-.29-.39-.47s-.23-.34-.31-.49-.18-.35-.29-.61-.19-.45-.23-.56-.11-.32-.22-.62-.17-.48-.2-.55c-.17.11-.46.42-.85.93s-.62.8-.67.85c-.96.99-1.85 1.61-2.66 1.88-.81.11-1.31.16-1.48.16-.65 0-1.17-.17-1.56-.52-.19-.15-.35-.32-.5-.52-.21-.35-.34-.79-.39-1.34s-.04-1.02 0-1.42Z"/>
  </g>
  <path class="cls-2" d="M241.48 82.46c9.81.03 50.42.32 60.41.66m-58.7 1.43c9.55.24 47.38.22 57.48-.08M265.04 74.11c-10.06 1.91-17.3 4.11-23.56 8.35m23.56-8.35c-8.27 3.02-19.2 7.29-23.56 8.35"/>
  <path class="cls-2" d="M264.9 91.21c-9.94-4.14-17.12-7.98-23.42-8.75m23.42 8.75c-8.3-3.61-19.17-5.98-23.42-8.75M277.29 93.32c6.62-3.81 15.98-7.69 23.38-8.85m-23.38 8.85c9.85-3.74 17.13-6.15 23.38-8.85M277.07 76.22c6.62 2.24 16.06 4.41 23.6 8.25m-23.6-8.25c10.02 2.89 17.38 7.11 23.6 8.25"/>
  <path d="M33.48 2.47c160.6-1.99 321.35-1.21 476 0m0 0c22.04.22 30.2 11.07 32 32m0 0c-1.92 34.4-.69 74.18 0 96m0 0c.18 21.95-11.01 33.93-32 32m0 0c-163.35.14-326.81-.02-476 0m0 0c-22.51-.94-33.54-9.77-32-32m0 0c1.12-27.06-.87-54.39 0-96m0 0c1.57-20.65 11.95-33.35 32-32" style="fill:none;stroke:#1971c2;stroke-linecap:round;stroke-dasharray:0 0 8 10;stroke-width:2.5px"/>
</svg>
