<svg xmlns="http://www.w3.org/2000/svg" viewBox="0 0 503.87 284.29">
  <defs>
    <style>
      .cls-1{isolation:isolate}.cls-2{stroke:#1e1e1e;fill:none;stroke-linecap:round;stroke-width:2px}.cls-6{fill:#2f9e44}.cls-6,.cls-7,.cls-8{stroke-width:0}.cls-7{fill:#1971c2}.cls-8{fill:#f08c00}
    </style>
  </defs>
  <path d="M32.65 82.39c37.21-.29 74.32 1.91 140 0m-140 0c30.5-1.92 61.38-.32 140 0m0 0c19.4.99 29.41 9.9 30 30m-30-30c21.35 1.94 28.32 8.1 30 30m0 0c.76 17.96-.98 35.99 0 60m0-60c-.58 16.93-1.06 36.51 0 60m0 0c-.49 19.02-8.11 29.56-30 30m30-30c1.48 19.14-11.52 27.7-30 30m0 0c-48.24 1.43-97.25-.7-140 0m140 0c-49.16-.48-100.12.81-140 0m0 0c-21.24 1.3-30.53-9.24-30-30m30 30c-18.47-1.78-29.86-9.36-30-30m0 0c-2.13-20.47-2.26-39.23 0-60m0 60c-.06-23.33-.4-45.22 0-60m0 0c-.37-20.01 9.77-28.9 30-30m-30 30c2.25-19.48 10.45-29.01 30-30" style="stroke:#1971c2;fill:none;stroke-linecap:round;stroke-width:2px"/>
  <g class="cls-1">
    <path class="cls-7" d="M52.17 125.69c-.15-.21-.23-.47-.26-.77-.03-.3-.03-.59 0-.87.15-.2.49-.45 1.02-.76l.12-.12c-.28-.67-.32-1.21-.12-1.64.01-.28.19-.51.53-.68.34-.17.66-.25.97-.22.27.27.48.44.64.52.73.09 1.24.22 1.52.38.07 0 .14 0 .22.02l.7.08c.08.01.15.02.22.02 1.73.48 3.21 1.03 4.42 1.64.08.08.36.3.84.66.48.36.82.68 1.02.96.2.28.3.61.3.98.01.21-.02.42-.09.61s-.15.36-.23.49c-.08.13-.23.29-.44.46-.21.17-.37.3-.47.37-.1.07-.29.19-.56.36s-.44.27-.49.31c-.23.16-.49.28-.8.35s-.68.13-1.13.17-.73.07-.85.1v.12c.29.33.5.55.62.64.27.19.67.52 1.21 1.01.54.49.94.82 1.21 1.01l.1.1.18.18.02.02.04.06s.02 0 .02.02l.38.34c.31.31.52.57.64.8 0 .07 0 .21.02.43s0 .42 0 .59c-.02.17-.06.3-.13.38-.11.08-.21.12-.32.12s-.25-.04-.44-.12c-.48-.29-1.03-.85-1.64-1.66-.41-.31-.97-.75-1.67-1.32s-1.2-.97-1.49-1.2c-.75-.48-1.63-1.19-2.66-2.14-.21-.36-.31-.67-.28-.94-.04-.24-.02-.43.07-.58.09-.15.24-.32.45-.52.13-.11.43-.15.9-.12.61.47 1.16.76 1.64.88.28 0 .59 0 .93-.01.34 0 .66-.01.97-.02s.62-.06.94-.16c.32-.1.59-.24.82-.43.36-.24.48-.54.35-.9s-.37-.61-.73-.76c-.68-.43-1.86-.93-3.54-1.5-.61-.17-1.21-.26-1.8-.26-.68 0-1.47.13-2.36.38 0 .17.1.38.3.63.2.25.31.46.32.63-.15 1.52-.19 3.46-.12 5.82.03.05.06.34.1.87.04.53.09.83.14.91.04.45.04.91 0 1.38-.03.28-.16.55-.39.82-.23.27-.47.37-.71.32-.45.04-.76-.13-.92-.5-.15-1.13-.27-2.31-.38-3.54.12-2.63.17-4.36.14-5.2ZM65.41 133.75c0-.08.02-.32.06-.71.04-.39.06-.62.06-.69l.04-.4.18-1.36v-.17c0-.06.01-.11.02-.15v-.46c0-.08.02-.28.06-.6.04-.32.06-.49.06-.52.09-.28.14-.45.14-.52v-1.9c-.05-.05-.13-.2-.23-.43-.1-.23-.15-.38-.15-.45-.07-.44-.07-.91 0-1.4.04-.09.12-.17.23-.24.11-.07.26-.12.45-.17.19-.05.29-.08.32-.09.49.11.83.15 1.02.12.28 0 .58-.03.89-.1.31-.07.56-.13.74-.19.18-.06.47-.16.87-.3s.67-.24.8-.29c.17-.04.46-.11.85-.21.39-.1.73-.17 1-.22s.58-.07.93-.07c.15-.01.46.02.94.1l.7.14.2.14c.13.11.23.19.3.25.07.06.14.14.23.24s.14.19.15.27v1.26c-.05.11-.18.19-.37.24-.19.05-.36.06-.51.02-.05-.03-.2-.17-.43-.42s-.43-.37-.59-.34c-1.49-.07-2.71.06-3.66.38-.15.07-.45.18-.9.33s-.83.3-1.12.44c-.29.14-.55.3-.76.49l-.14.12c0 .09-.02.39-.06.9-.04.51-.06.8-.06.88v.14s0 .13.05.26.07.21.07.24c.31-.09.73-.14 1.28-.14h.88c.23-.05.66-.18 1.29-.37s1.18-.34 1.64-.45c.46-.11.88-.17 1.25-.18.13 0 .35 0 .64-.01.29 0 .54-.01.73-.02s.41 0 .66.03c.25.03.46.07.63.12.6.4.85.76.76 1.08.05.31-.12.53-.52.68-.08.04-.25 0-.52-.09-.27-.1-.43-.15-.48-.15-.83-.11-1.63-.08-2.42.08s-1.71.43-2.78.8c-.15.05-.33.12-.55.19s-.38.13-.49.17-.24.09-.4.16-.31.15-.46.24l-.08.04-.22.18-.08.04c-.12.03-.3 0-.55-.05-.25-.06-.4-.09-.45-.09-.07.03-.12.09-.15.18s-.06.2-.07.33c-.01.13-.03.21-.04.25-.01.13-.02.56-.02 1.28h.22c.23 0 .42 0 .58-.02l1.56-.08c.16-.01.35-.02.58-.02.24 0 .37 0 .38-.02.31-.07.85-.12 1.64-.17.79-.05 1.21-.07 1.28-.07 1.05-.05 2.15.03 3.28.24.19.07.33.18.43.35.1.17.12.35.07.55-.11.15-.23.27-.38.38-.56.01-1.32.07-2.27.18-.95.11-1.63.17-2.03.2-.09.01-.34.05-.75.12-.41.07-.79.13-1.15.2-.36.07-.61.13-.76.18-.12.01-.31.07-.57.16-.26.09-.43.13-.51.1l-1.26.26c-.24-.07-.47-.21-.68-.42-.08.08-.21.17-.4.26-.36.07-.65-.05-.88-.36-.12-.17-.21-.39-.26-.64v-.24ZM78.65 132.55c-.03-.23.02-.44.15-.65.13-.21.29-.32.49-.35.47-.09.87.02 1.22.34.05.03.19.16.42.4.57.36 1.29.57 2.14.64.51 0 .98 0 1.41.02.43.01.9-.01 1.4-.08.5-.07.96-.17 1.37-.32.56-.44.77-.82.64-1.14-.08-.27-.35-.57-.82-.9-.47-.33-.74-.54-.82-.62-1.47-.53-3.03-1.21-4.68-2.02-.44-.21-.76-.4-.96-.56-.2-.16-.47-.44-.82-.84-.16-.23-.19-.67-.08-1.34.08-.23.36-.45.84-.68.01 0 .15-.04.42-.12.27-.08.42-.12.46-.12.16-.12.34-.24.55-.35s.39-.21.56-.29c.17-.08.39-.18.66-.29.27-.11.48-.2.62-.25.14-.05.37-.14.7-.25.33-.11.54-.19.65-.23.13-.04.41-.15.84-.33.43-.18.82-.33 1.17-.46s.62-.2.79-.23l1.16-.12.78.38c.12.09.2.2.23.31s.05.26.04.45v.38c-.35.44-.69.61-1.02.52-.03 0-.11-.04-.26-.13-.15-.09-.23-.13-.24-.13-.08-.01-.18 0-.3.02-.12.03-.26.07-.41.13-.15.06-.26.1-.31.11-.36.2-.96.48-1.79.83-.83.35-1.33.57-1.49.65-1.04.39-1.67.65-1.9.8v.12c.17.24.4.45.68.64s.67.39 1.18.6.81.35.92.4c1.93.72 3.33 1.61 4.18 2.66.33.72.46 1.39.38 2.02-.21.51-.54.96-.98 1.37-.44.41-.92.7-1.44.89-.73.29-1.83.43-3.3.4-1.55.04-2.85-.17-3.9-.64-.36-.11-.61-.23-.76-.38-.51-.37-.76-.79-.76-1.26Z"/>
    <path class="cls-7" d="M97.23 128.23c0-.19.02-.48.06-.89.04-.41.06-.77.06-1.09s-.04-.59-.12-.82c-.08-.07-.13-.11-.14-.12-1.07-.03-1.87.06-2.4.26l-2.28.62c-.21.21-.38.34-.5.38-.47.27-.93.44-1.38.52-.65-.43-.95-.83-.9-1.22-.03-.19.07-.46.28-.82 1.32-.56 2.37-.89 3.14-1 1.12-.32 2.3-.53 3.54-.64.07-.01.21-.04.43-.08s.41-.08.56-.12c.15-.04.29-.1.41-.18.04 0 .15 0 .33.01s.35.01.51.02h.6c.07 0 .48-.04 1.23-.11s1.62-.12 2.59-.15c.2.03.55.02 1.05-.01s.92 0 1.26.07c.34.08.62.27.85.58.07.09.11.2.13.32.02.12.02.23 0 .34-.01.11-.01.22 0 .34-.01.03-.05.07-.12.14s-.11.11-.14.12c-.32-.01-1.02-.02-2.09-.02s-1.77 0-2.09.02c-.16 0-.38.02-.67.06s-.51.06-.67.06h-.38c-.07 0-.13 0-.2.02l-.62.08c-.07.01-.13.02-.2.02-.2.36-.29.59-.28.7-.08.11-.12.86-.11 2.25s0 2.14 0 2.25c.01.15.05.74.12 1.77s.17 1.78.32 2.25v.06c-.03.12-.2.39-.52.82l-.18.18c-.08.08-.13.12-.14.13-.01 0-.06.03-.15.07-.09.04-.16.04-.23 0-.28.05-.55-.16-.82-.64-.09-.08-.13-.38-.12-.91.01-.53.01-.83 0-.91 0-.25-.02-1.05-.05-2.4s-.03-2.12.01-2.32ZM126.47 133.11c0-.13-.07-.35-.2-.66-.08-.08-.13-.12-.14-.12l-.2-.1c-.28.07-.88.18-1.79.33-.91.15-1.54.3-1.89.43-.24.07-.43.1-.58.1-.16 0-.34-.03-.54-.08h-.12c-.05.04-.23.2-.52.49-.29.29-.57.55-.83.8s-.44.4-.53.47c-.15.11-.39.27-.72.49s-.57.39-.72.51c-.47 0-.7-.13-.7-.38-.08-.44.08-.9.48-1.38l1.9-1.76c.64-.73 1.35-1.64 2.14-2.72s1.39-1.87 1.82-2.36c.13-.2.35-.53.66-1s.53-.82.67-1.06c.14-.24.32-.55.53-.94.21-.39.38-.76.5-1.11.12-.35.22-.72.3-1.11 0-.01.03-.14.09-.37s.08-.36.07-.39c.31-.43.62-.65.94-.66.12-.01.2-.02.24-.02.27 0 .49.09.68.28s.27.39.26.62c0 .08-.02.37-.06.87s-.07.92-.1 1.25c-.01.21-.03.49-.05.84-.02.35-.04.62-.05.83-.01.21-.03.36-.04.45.01.67.02 1.17 0 1.5 0 .33-.02.83-.04 1.49s-.03 1.16-.03 1.51c.13.13.29.2.48.2.03 0 .1 0 .22.03.12.02.21.04.28.05.07.01.14.03.23.06s.16.07.22.12c.06.05.11.12.15.2.01.03.02.08.01.16s-.02.13-.03.16c-.15.13-.53.35-1.16.66-.05.01-.11.05-.16.1-.07.19-.04.53.08 1.02s.18.77.18.84c.01.12.04.3.08.55.04.25.07.44.08.57.01.13-.01.29-.08.47s-.19.34-.36.47c-.15.08-.31.12-.5.12-.17 0-.34-.04-.5-.12-.2-.16-.46-.49-.78-.98l-.1-.2c-.01-.17.03-.43.12-.76s.13-.59.1-.76Zm-3.94-2.2s0 .03.03.06.06.04.09.04h.52c.27 0 .46-.01.59-.02s.31-.02.56-.04c.25-.02.45-.04.61-.07.16-.03.34-.07.54-.12.2-.05.38-.11.54-.18l.14-.1.08-.98v-.92l-.02-1.76v-.92c-.21.13-.43.43-.66.88s-.43.77-.62.94c-.27.44-.7 1.04-1.3 1.79-.6.75-.97 1.22-1.1 1.41ZM130.61 130.63c.07-.57.19-1.34.38-2.29s.31-1.62.38-2.01c.2-.73.28-1.66.24-2.78-.25-.12-.46-.25-.62-.38-.32-.35-.45-.69-.4-1.02-.05-.33.04-.63.28-.88.24-.25.53-.38.88-.38.17 0 .34.04.5.12.08.08.29.21.64.38.08.08.16.12.24.12.35.17.56.26.64.26 1.47.27 2.86.65 4.18 1.14 1.92.59 3.35 1.51 4.3 2.78.03.08.08.19.16.32s.14.24.17.32c.03.08.05.18.04.29 0 .11-.05.22-.13.33-.28.52-.74.95-1.38 1.28-.63.27-1.61.48-2.96.65s-2.17.28-2.48.35c-.52.21-1.03.3-1.52.26-.68.07-1.19.19-1.52.38-.05.05-.09.14-.12.26-.07.17-.11.35-.14.54-.03.19-.03.36-.02.52.01.16.01.35 0 .58-.04.65.05 1.29.28 1.9.01.09 0 .19-.02.3s-.06.2-.09.28-.08.18-.15.3c-.07.12-.11.2-.12.24-.44.44-.82.61-1.14.5-.51-.4-.76-.9-.76-1.5.03-.89.11-1.95.26-3.16Zm2.36-3.2h.2c.36 0 1.02.05 1.98.16.24-.04.75-.12 1.52-.24s1.37-.21 1.78-.26c.07-.01.21-.04.42-.08s.36-.07.45-.1c.09-.03.21-.06.37-.11s.3-.1.42-.15c.12-.05.24-.12.36-.2.01-.01.02-.06.02-.13s0-.12-.02-.13c-.07-.09-.17-.2-.32-.32s-.29-.22-.42-.31-.29-.18-.47-.29c-.18-.11-.28-.17-.31-.2-.47-.07-1.19-.26-2.17-.58-.98-.32-1.65-.51-2.01-.56-.05 0-.15 0-.29-.02-.14-.01-.26-.01-.36 0-.1.01-.18.06-.23.14-.04.05-.11.19-.21.41-.1.22-.16.34-.17.35-.01.17-.11.59-.29 1.25s-.26 1.12-.25 1.37ZM143.63 133.67l2.08-.52c.29-.07.46-.19.5-.38.15-.33.28-1.12.4-2.36.12-1.24.21-2.01.28-2.3.21-1.52.29-2.66.22-3.42-.2-.08-.39-.12-.58-.12-.11 0-.28.02-.53.05-.25.03-.44.05-.57.05-.11.07-.25.1-.44.1-.23 0-.42-.03-.58-.1-.28-.19-.45-.53-.5-1.02-.01-.12.1-.3.34-.55.24-.25.49-.45.74-.61.31-.03.62.07.94.28h1.52c.24-.08.37-.13.38-.14.03-.01.11-.1.26-.25.15-.15.27-.24.38-.25.37-.03.63.06.76.26h.88c.15-.03.29-.06.44-.09s.23-.06.26-.07c.03-.01.09-.02.18-.03h.24c.07 0 .2.02.4.03h.48c.28.13.52.36.72.67.2.31.26.6.18.85-.19.08-.36.15-.51.2-.15.05-.29.1-.42.14-.13.04-.23.07-.31.09-.08.02-.17.03-.28.04h-.72c-.35 0-.65.02-.92.06-.04 0-.07 0-.1.02l-.42.08s-.06.02-.1.02c-.01 0-.04.02-.07.05s-.05.06-.05.07c-.12.47-.29 1.49-.51 3.06s-.38 2.58-.49 3.02c-.01.12-.04.34-.07.67-.03.33-.05.57-.06.72s0 .37 0 .65c0 .03.04.07.13.13s.17.1.25.11c1.45-.19 2.41-.27 2.86-.24.01 0 .11 0 .28.03.17.02.3.04.39.06.09.02.2.05.33.09s.24.1.31.17.12.16.13.27c.04.12.03.27-.03.45s-.14.28-.23.31c-.4.15-1.37.36-2.9.64-.07 0-.13 0-.18.02l-.66.08c-.05.01-.11.02-.18.02-.45.08-.83.25-1.14.5h-.62l-.52-.14c-.23.01-.51.06-.85.13-.34.07-.58.12-.73.13-.48.11-.88-.14-1.2-.74l.2-1Z"/>
  </g>
  <g class="cls-1">
    <path class="cls-7" d="M30.5 153.23c0-.19.02-.48.06-.89.04-.41.06-.77.06-1.09s-.04-.59-.12-.82c-.08-.07-.13-.11-.14-.12-1.07-.03-1.87.06-2.4.26l-2.28.62c-.21.21-.38.34-.5.38-.47.27-.93.44-1.38.52-.65-.43-.95-.83-.9-1.22-.03-.19.07-.46.28-.82 1.32-.56 2.37-.89 3.14-1 1.12-.32 2.3-.53 3.54-.64.07-.01.21-.04.43-.08s.41-.08.56-.12c.15-.04.29-.1.41-.18.04 0 .15 0 .33.01s.35.01.51.02h.6c.07 0 .48-.04 1.23-.11s1.62-.12 2.59-.15c.2.03.55.02 1.05-.01s.92 0 1.26.07c.34.08.62.27.85.58.07.09.11.2.13.32s.02.23 0 .34-.01.22 0 .34c-.01.03-.05.07-.12.14-.07.07-.11.11-.14.12-.32-.01-1.02-.02-2.09-.02s-1.77 0-2.09.02c-.16 0-.38.02-.67.06-.29.04-.51.06-.67.06h-.38c-.07 0-.13 0-.2.02l-.62.08c-.07.01-.13.02-.2.02-.2.36-.29.59-.28.7-.08.11-.12.86-.11 2.25v2.25c.01.15.05.74.12 1.77.07 1.03.17 1.78.32 2.25v.06c-.03.12-.2.39-.52.82l-.18.18c-.08.08-.13.12-.14.13-.01 0-.06.03-.15.07-.09.04-.16.04-.23 0-.28.05-.55-.16-.82-.64-.09-.08-.13-.38-.12-.91.01-.53.01-.83 0-.91 0-.25-.02-1.05-.05-2.4s-.03-2.12.01-2.32ZM42.34 166.99v-.24c.11-.25.41-1.04.91-2.36s.83-2.18.99-2.58c.35-.88.55-1.58.62-2.1l-.28-.02c-.19-.01-.3-.01-.34 0-.37.09-.67.14-.88.14-.4 0-.78-.13-1.14-.4-.73-.29-1.33-1.05-1.78-2.28-.09-.39-.14-.8-.14-1.23s.02-.82.07-1.15c.05-.33.11-.74.18-1.23.07-.49.12-.89.15-1.21.12-.44.45-.66.98-.66.23 0 .45.05.66.16.33.23.47.5.4.82-.01.09-.15.33-.4.7-.21.65-.29 1.63-.24 2.92.01.39.2.72.55.99.35.27.74.46 1.15.55.16-.01.31-.05.45-.1s.28-.14.43-.25c.15-.11.26-.21.34-.28s.21-.21.39-.4c.18-.19.3-.32.35-.39.24-.28.46-.63.65-1.05.19-.42.33-.75.41-.98.08-.23.19-.61.34-1.13.01-.07.04-.17.07-.31.03-.14.06-.25.09-.34s.07-.18.13-.27c.06-.09.13-.17.21-.22.32-.17.64-.26.96-.26.37 0 .69.13.94.38.28.4.15.99-.38 1.78-.25.51-.67 1.27-1.26 2.28-.05.07-.13.2-.23.41s-.15.32-.15.35c-.44 1.16-.73 2.05-.88 2.66-.16.44-.45 1.24-.87 2.4s-.76 2.08-1.03 2.76c-.12.24-.2.49-.25.75s-.09.59-.13 1c-.04.41-.09.76-.14 1.05-.03.36-.15.61-.38.76-.2.08-.41.12-.62.12s-.39-.04-.52-.12c-.25-.51-.38-.98-.38-1.42ZM50.32 154.55c.21-.65.52-1.17.93-1.56.41-.39.94-.71 1.61-.98.28-.08.51-.12.68-.12.09 0 .31.03.66.08 1.57.41 2.69 1.11 3.34 2.08.85.83 1.19 2.09 1.02 3.78-.2.63-.67 1.15-1.41 1.57s-1.45.61-2.13.57c-.61.15-1.2.04-1.75-.31s-1.11-.84-1.67-1.45h-.08c0 .12-.01.63-.03 1.53-.02.9-.03 1.57-.03 2.01-.11 1.43.23 2.81 1.02 4.16.13.25.13.55 0 .9-.27.31-.48.47-.64.5-.11.01-.19.02-.24.03s-.13-.03-.22-.1-.16-.13-.2-.18-.1-.12-.18-.21c-.08-.09-.13-.15-.16-.18-.53-.96-.87-2.56-1.02-4.8v-1.19c0-.69-.01-1.12-.01-1.29s0-.54.02-1.09c.01-.55.04-.98.08-1.28s.09-.68.16-1.14c.07-.46.15-.9.26-1.33Zm2.8 2.52c.05.08.21.26.48.53s.44.44.52.49c.28.16.61.24.98.24.8 0 1.32-.29 1.56-.88.17-.56.17-1.06 0-1.51-.18-.45-.52-.91-1.01-1.39-.17-.16-.31-.27-.4-.34-.09-.07-.22-.13-.39-.19s-.32-.05-.47.03c-.56.27-1.03.89-1.4 1.88 0 .07 0 .19-.01.36 0 .17 0 .32.02.44s.06.23.13.34ZM61.24 154.19c.96-1.23 2.01-2.03 3.16-2.4.73-.09 1.12-.14 1.16-.14.83.03 1.55.28 2.16.75.61.47.94 1.12.98 1.93.01.71-.27 1.35-.85 1.94s-1.22.91-1.93.96c-.27.09-.55.14-.86.14-.69 0-1.46-.25-2.3-.76-.25-.25-.42-.38-.5-.38-.05-.03-.1-.03-.14 0-.44.67-.65 1.17-.64 1.52.15.87.61 1.6 1.4 2.21.79.61 1.62.88 2.5.83.13.05.37.06.7 0s.56-.08.67-.11.34-.09.68-.19.58-.17.71-.21c.47-.19 1.09-.31 1.86-.36h.14c.09-.03.18 0 .26.06.08.07.13.17.14.3v.74c-.48.55-1.07.84-1.78.88-.15.04-.41.11-.79.22-.38.11-.67.18-.86.23s-.45.09-.76.14c-.31.05-.6.06-.85.05-1.17.05-2.3-.25-3.38-.9-.99-.51-1.75-1.39-2.28-2.64-.2-.79-.17-1.55.1-2.3.27-.75.7-1.59 1.3-2.52Zm1.56.96c.28 0 .52.02.72.06.12.07.24.12.35.15.11.03.25.06.42.08.17.02.28.03.33.03h.8c.69-.21 1.15-.51 1.38-.9.04-.15.04-.28 0-.39s-.11-.21-.23-.29-.23-.14-.34-.18-.25-.09-.43-.15-.31-.1-.39-.13c-.32 0-.65.09-.98.27-.33.18-.6.36-.8.53-.2.17-.45.41-.76.72 0 .01-.01.04-.04.09-.03.05-.04.08-.04.11ZM80.88 158.81c.09-.07.24-.12.44-.15s.45-.06.74-.08c.29-.02.45-.03.48-.03l.56-.02c.29.01.49.03.6.06l.44-.06.56-.08c.37-.05.6-.08.68-.08l-.02-.12c-.23 0-.39-.04-.5-.12-.21-.15-.39-.36-.54-.65-.15-.29-.24-.51-.29-.67s-.11-.48-.18-.95c-.07-.47-.11-.72-.11-.75v-.2c-.03-.53 0-1.45.05-2.75.06-1.3.06-2.22 0-2.75-.01-.13.08-.27.27-.41.19-.14.3-.22.31-.25l-.02-.02-.06-.08c-1.03-.32-1.81-.61-2.35-.88s-.9-.52-1.09-.75c-.19-.23-.31-.52-.36-.87.19-.4.46-.6.82-.6.15 0 .29.03.44.08l.32.18c.28.05.44.09.48.1 1.83.52 3.64 1.24 5.45 2.15s3.26 1.94 4.35 3.09c.95 1.11 1.56 1.92 1.84 2.44.48.87.64 1.69.48 2.46-.08.21-.17.41-.26.58-.09.17-.21.34-.35.5-.14.16-.26.3-.36.41s-.25.23-.45.36c-.2.13-.35.22-.44.29-.09.07-.27.16-.53.27s-.43.19-.52.23-.29.12-.6.25-.5.2-.57.23c-.67.21-1.34.38-2.01.5-.67.12-1.48.23-2.42.34-.94.11-1.64.19-2.11.26l-1.12.16-1.06.14h-.26c-.43.03-.75-.23-.98-.78-.16-.35-.07-.67.26-.98Zm5.22-.96-.24.26.76-.02c2.13-.15 3.89-.64 5.26-1.48.05-.04.19-.18.42-.41.23-.23.37-.4.44-.49.08-.08.12-.17.12-.26l-.02-.44c-.08-.45-.29-.93-.62-1.43-.33-.5-.63-.88-.88-1.15-.25-.27-.64-.64-1.16-1.12-1.8-1.23-3.44-2.03-4.92-2.42h-.14c.07.07.13.15.18.24.16.39.25.8.26 1.24.01.44 0 .87-.06 1.28.03 1.21.07 2.27.14 3.16.27.99.45 1.58.54 1.78.07.36.08.69.04 1 0 .12-.04.21-.12.26ZM97.78 154.19c.96-1.23 2.01-2.03 3.16-2.4.73-.09 1.12-.14 1.16-.14.83.03 1.55.28 2.16.75.61.47.94 1.12.98 1.93.01.71-.27 1.35-.85 1.94s-1.22.91-1.93.96c-.27.09-.55.14-.86.14-.69 0-1.46-.25-2.3-.76-.25-.25-.42-.38-.5-.38-.05-.03-.1-.03-.14 0-.44.67-.65 1.17-.64 1.52.15.87.61 1.6 1.4 2.21.79.61 1.62.88 2.5.83.13.05.37.06.7 0s.56-.08.67-.11.34-.09.68-.19.58-.17.71-.21c.47-.19 1.09-.31 1.86-.36h.14c.09-.03.18 0 .26.06.08.07.13.17.14.3v.74c-.48.55-1.07.84-1.78.88-.15.04-.41.11-.79.22-.38.11-.67.18-.86.23s-.45.09-.76.14c-.31.05-.6.06-.85.05-1.17.05-2.3-.25-3.38-.9-.99-.51-1.75-1.39-2.28-2.64-.2-.79-.17-1.55.1-2.3.27-.75.7-1.59 1.3-2.52Zm1.56.96c.28 0 .52.02.72.06.12.07.24.12.35.15.11.03.25.06.42.08.17.02.28.03.33.03h.8c.69-.21 1.15-.51 1.38-.9.04-.15.04-.28 0-.39s-.11-.21-.23-.29-.23-.14-.34-.18-.25-.09-.43-.15-.31-.1-.39-.13c-.32 0-.65.09-.98.27-.33.18-.6.36-.8.53-.2.17-.45.41-.76.72 0 .01-.01.04-.04.09-.03.05-.04.08-.04.11ZM108.24 154.57c-.11-.15-.23-.27-.38-.38-1.2-.29-1.75-.76-1.64-1.4-.04-.27 0-.51.12-.72.12-.21.3-.31.54-.3.13-.01.32.02.56.09s.44.08.6.03c0-.08 0-.44-.02-1.08-.01-.64-.02-1.11-.02-1.42-.01-.31.02-.77.1-1.38s.13-1 .14-1.16c-.03-.27 0-.52.08-.75s.23-.51.44-.83c.21-.32.33-.51.36-.56.29-.36.71-.54 1.26-.54.25 0 .59.05 1.02.16.52.21 1.04.54 1.55.97s1.07.97 1.66 1.6c.59.63 1.04 1.08 1.35 1.35.37.49.58.79.62.88.07.11.11.22.13.34.02.12.03.27.02.44v.36c-.04.05-.1.17-.17.35-.07.18-.15.31-.24.4-.09.09-.2.1-.35.03-.31.08-.56-.09-.76-.52-.08-.28-.12-.58-.12-.9-.07-.07-.3-.32-.69-.75-.39-.43-.63-.69-.71-.77-.09-.07-.43-.36-1.02-.88-.59-.52-1.01-.81-1.26-.88-.41-.12-.77-.05-1.07.21-.3.26-.49.61-.57 1.05-.2 1.79-.2 3.39 0 4.8l.26.14c.6.13 1.4.27 2.41.4 1.01.13 1.76.25 2.27.36.83.27 1.41.56 1.76.88.05.2.02.39-.11.58-.13.19-.3.29-.53.3-.21.05-.46.08-.74.08-.36 0-.9-.07-1.63-.22s-1.16-.23-1.29-.24c-.47-.09-.85-.14-1.16-.14-.33 0-.66.05-.98.14v.16l-.02.44v.16c-.05.55.02 1.25.21 2.1s.3 1.47.31 1.84c0 .09-.05.18-.14.27-.09.09-.21.18-.35.27s-.23.15-.27.18c-.13-.03-.25-.07-.36-.13-.11-.06-.19-.12-.25-.17-.06-.05-.12-.14-.18-.27s-.1-.22-.12-.29c-.02-.07-.06-.19-.11-.37s-.09-.31-.12-.39c-.25-.91-.38-2.21-.38-3.92Z"/>
    <path class="cls-7" d="M116.66 148.75c.08-.2.22-.36.43-.49s.42-.18.65-.15c.08-.01.15-.01.22 0s.14.04.21.08.13.07.17.1c.04.03.1.09.17.18s.12.15.15.17c.03.02.08.09.16.21l.12.16c.05.13.31.43.76.88.09.13.14.29.15.47 0 .18-.04.32-.15.43h-.44c-.23.04-.46.03-.69-.04-.23-.07-.54-.2-.92-.4s-.58-.31-.61-.32c-.23-.13-.38-.32-.45-.57-.07-.25-.05-.48.07-.71Zm1.28 10.14c-.03-.16-.07-.51-.12-1.05-.05-.54-.11-1.11-.16-1.7-.05-.59-.09-.94-.1-1.05-.03-.36-.03-.74 0-1.14.2-.35.53-.47 1-.38.17.08.35.33.52.76 0 .28.02.57.07.88.05.31.09.57.14.78.05.21.12.49.21.84s.16.61.2.8c0 .11 0 .28-.03.51-.02.23-.04.46-.06.67-.02.21-.03.33-.03.34-.01.04-.03.11-.05.22-.02.11-.04.19-.06.26-.02.07-.05.14-.1.21s-.1.13-.17.17c-.36.07-.65-.01-.88-.24-.23-.4-.35-.69-.38-.88ZM126.28 154.45c-.88.75-1.68 1.67-2.4 2.78-.03.05-.2.34-.51.87s-.52.91-.63 1.15c-.15.24-.36.33-.64.26l-.88-.9v-.62c.07-.35.14-1.02.22-2.02.08-1 .13-1.59.16-1.78 0-.07 0-.13-.02-.18l-.08-.52c-.01-.05-.02-.11-.02-.18v-.08c0-.21.07-.39.21-.52.14-.13.32-.19.53-.18.43 0 .73.13.9.4.09.36.14.83.14 1.4v.74c.11-.08.32-.28.65-.61s.53-.54.61-.65c.09-.12.21-.28.35-.49.14-.21.28-.39.41-.54.13-.15.29-.3.48-.45.07-.09.15-.16.24-.21.09-.05.18-.07.27-.08s.18-.01.29-.01h.32c.15-.05.3-.04.45.03s.32.22.49.44c.17.22.28.37.33.45.05.08.15.25.31.5.41.96.62 2.01.62 3.14l.38 1.64s.04.17.13.4.13.35.13.36c.03.36-.06.61-.26.76-.04.01-.14.05-.29.11-.15.06-.27.09-.35.09-.13 0-.21-.07-.24-.2-.03-.04-.12-.19-.27-.45s-.28-.44-.37-.55c-.25-.88-.42-1.73-.5-2.54-.04-.09-.1-.3-.17-.61s-.14-.53-.21-.65c-.28-.32-.47-.49-.56-.52-.11 0-.17 0-.2.02ZM130.38 148.75c.08-.2.22-.36.43-.49s.42-.18.65-.15c.08-.01.15-.01.22 0s.14.04.21.08.13.07.17.1c.04.03.1.09.17.18s.12.15.15.17c.03.02.08.09.16.21l.12.16c.05.13.31.43.76.88.09.13.14.29.15.47 0 .18-.04.32-.15.43h-.44c-.23.04-.46.03-.69-.04-.23-.07-.54-.2-.92-.4s-.58-.31-.61-.32c-.23-.13-.38-.32-.45-.57-.07-.25-.05-.48.07-.71Zm1.28 10.14c-.03-.16-.07-.51-.12-1.05-.05-.54-.11-1.11-.16-1.7-.05-.59-.09-.94-.1-1.05-.03-.36-.03-.74 0-1.14.2-.35.53-.47 1-.38.17.08.35.33.52.76 0 .28.02.57.07.88s.09.57.14.78c.05.21.12.49.21.84s.16.61.2.8c0 .11 0 .28-.03.51-.02.23-.04.46-.06.67-.02.21-.03.33-.03.34-.01.04-.03.11-.05.22-.02.11-.04.19-.06.26-.02.07-.05.14-.1.21-.05.07-.1.13-.17.17-.36.07-.65-.01-.88-.24-.23-.4-.35-.69-.38-.88ZM137.84 156.13l.04-1.64c0-.39-.03-.98-.1-1.78-.08-.31-.15-.49-.22-.54-.88.07-1.55.21-2.02.44-.12 0-.29.05-.52.14-.23.09-.42.13-.58.1-.09-.04-.19-.1-.28-.18-.09-.08-.19-.18-.29-.29-.1-.11-.18-.2-.25-.25-.05-.13-.07-.32-.06-.56.01-.24.06-.42.14-.54l.66-.58c.69-.01 1.73-.15 3.1-.4l.14-.16.04-3.14c.31-.33.69-.45 1.14-.36.36.28.56.63.6 1.04.04.08.07.41.08 1 .01.59.07.93.16 1.02.01 0 .08.02.19.05s.18.06.19.07c.27-.03.61-.08 1.02-.15.41-.07.71-.12.9-.13.19-.01.53 0 1.02.02l.92.04c.57.08.79.41.64 1-.23.23-.4.35-.52.38-.31.03-.62.07-.94.12-.32.05-.72.14-1.19.25-.47.11-.79.18-.95.21l-.04.02c-.35.01-.74.1-1.18.26l-.1.14c0 .16 0 .42-.03.79-.02.37-.02.68 0 .94.01.26.05.52.12.79 0 2.33.12 3.79.36 4.36.27.24.51.37.72.38.12 0 .27-.02.46-.06.05-.01.13-.03.24-.06.11-.03.18-.04.22-.05.04 0 .1-.02.18-.05.08-.03.14-.05.17-.06.03-.01.08-.04.14-.07.06-.03.11-.07.14-.11s.08-.09.13-.14c.05-.05.1-.11.15-.18s.1-.14.15-.23c.05-.09.11-.18.18-.29-.01-.07 0-.23.06-.48.05-.25.09-.41.12-.48.15-.41.41-.61.8-.6.19-.03.33 0 .42.1s.18.26.26.5l.1.34c-.09.65-.19 1.06-.3 1.22-.27.53-.47.9-.61 1.1-.14.2-.39.41-.75.63-.36.22-.91.45-1.66.69-.04.01-.19.07-.46.17s-.47.15-.62.15c-.61-.03-1.07-.23-1.36-.6-.04-.08-.16-.29-.36-.63s-.34-.64-.42-.9-.1-.54-.06-.83c-.01-.24-.05-.59-.1-1.04-.05-.45-.09-.74-.1-.86-.01-.01-.02-.03-.02-.04ZM146.06 148.75c.08-.2.22-.36.43-.49s.42-.18.65-.15c.08-.01.15-.01.22 0s.14.04.21.08.13.07.17.1c.04.03.1.09.17.18s.12.15.15.17c.03.02.08.09.16.21l.12.16c.05.13.31.43.76.88.09.13.14.29.15.47 0 .18-.04.32-.15.43h-.44c-.23.04-.46.03-.69-.04-.23-.07-.54-.2-.92-.4s-.58-.31-.61-.32c-.23-.13-.38-.32-.45-.57-.07-.25-.05-.48.07-.71Zm1.28 10.14c-.03-.16-.07-.51-.12-1.05-.05-.54-.11-1.11-.16-1.7-.05-.59-.09-.94-.1-1.05-.03-.36-.03-.74 0-1.14.2-.35.53-.47 1-.38.17.08.35.33.52.76 0 .28.02.57.07.88.05.31.09.57.14.78.05.21.12.49.21.84s.16.61.2.8c0 .11 0 .28-.03.51-.02.23-.04.46-.06.67-.02.21-.03.33-.03.34-.01.04-.03.11-.05.22-.02.11-.04.19-.06.26-.02.07-.05.14-.1.21s-.1.13-.17.17c-.36.07-.65-.01-.88-.24-.23-.4-.35-.69-.38-.88ZM150.74 157.23v-2.16c-.09-.15-.14-.36-.14-.64s.05-.49.14-.62c.2-.15.43-.3.7-.46s.56-.33.88-.52.55-.33.7-.42c.56-.33 1.26-.5 2.1-.5.99 0 1.94.21 2.85.64.91.43 1.67 1.01 2.27 1.76.69.95.86 1.83.5 2.66-.85 1.47-2.12 2.39-3.8 2.78-.21.08-.45.14-.71.18s-.47.06-.63.07h-.76c-.35 0-.57-.01-.68-.01-.68-.15-1.15-.25-1.41-.32s-.54-.2-.83-.41c-.29-.21-.51-.45-.65-.73-.14-.28-.32-.71-.53-1.3Zm1.9 0c.09.19.25.39.46.61.21.22.4.35.56.39.31.16.75.24 1.32.24.53 0 1.09-.08 1.67-.23.58-.15 1.12-.42 1.61-.8.49-.38.77-.83.84-1.35.01-.16.02-.29.02-.38s-.04-.2-.13-.33-.16-.22-.23-.29c-.07-.07-.16-.15-.28-.26-.12-.11-.21-.19-.26-.26-1.13-.63-1.99-.94-2.58-.94-.29 0-.57.06-.84.18-.12.04-.25.13-.38.26-.39.36-.64.57-.76.62-.04.04-.12.11-.23.22-.11.11-.21.2-.29.27s-.16.16-.23.26-.12.19-.13.27c-.08.15-.13.31-.14.5-.01.19 0 .36 0 .51s.02.32 0 .51ZM166.76 154.45c-.88.75-1.68 1.67-2.4 2.78-.03.05-.2.34-.51.87s-.52.91-.63 1.15c-.15.24-.36.33-.64.26l-.88-.9v-.62c.07-.35.14-1.02.22-2.02.08-1 .13-1.59.16-1.78 0-.07 0-.13-.02-.18l-.08-.52c-.01-.05-.02-.11-.02-.18v-.08c0-.21.07-.39.21-.52.14-.13.32-.19.53-.18.43 0 .73.13.9.4.09.36.14.83.14 1.4v.74c.11-.08.32-.28.65-.61s.53-.54.61-.65c.09-.12.21-.28.35-.49.14-.21.28-.39.41-.54.13-.15.29-.3.48-.45.07-.09.15-.16.24-.21.09-.05.18-.07.27-.08s.18-.01.29-.01h.32c.15-.05.3-.04.45.03s.32.22.49.44c.17.22.28.37.33.45.05.08.15.25.31.5.41.96.62 2.01.62 3.14l.38 1.64s.04.17.13.4.13.35.13.36c.03.36-.06.61-.26.76-.04.01-.14.05-.29.11-.15.06-.27.09-.35.09-.13 0-.21-.07-.24-.2-.03-.04-.12-.19-.27-.45s-.28-.44-.37-.55c-.25-.88-.42-1.73-.5-2.54-.04-.09-.1-.3-.17-.61s-.14-.53-.21-.65c-.28-.32-.47-.49-.56-.52-.11 0-.17 0-.2.02ZM171.9 158.49l.18-.3c.09-.15.16-.26.2-.34.69.12 1.28.41 1.76.88.25.19.56.33.91.44s.62.17.8.19c.18.02.54.03 1.07.02s.83 0 .9 0c.29 0 .67-.09 1.14-.26.13-.05.21-.15.24-.28.03-.13-.01-.25-.12-.34-.25-.19-.91-.54-1.97-1.06s-1.62-.8-1.69-.84c-1.36-.41-2.55-1.01-3.56-1.78-.07-.09-.18-.2-.33-.33-.15-.13-.28-.25-.37-.38-.09-.13-.15-.27-.18-.43-.01-.52.24-.98.76-1.38.07-.03.33-.11.78-.24s.79-.27 1-.4c1.24-.49 2.42-.78 3.54-.86.03 0 .1 0 .23.02.13.01.2.02.22.02.02 0 .08 0 .19.02.11.01.17.03.2.04.03.01.08.03.16.06s.14.06.17.09.08.07.13.12c.05.05.1.1.13.16s.06.13.09.21c.08.47-.05.85-.38 1.14-.07 0-.28 0-.64.02-.36.01-.59.02-.7.03-.11 0-.31.03-.6.06s-.52.07-.68.11-.35.1-.56.18c-.21.08-.41.17-.6.28-.19.07-.31.17-.37.32s.02.27.23.38c.61.43 1.52.91 2.72 1.46s2.02.95 2.46 1.2c.44.28.82.62 1.15 1.01.33.39.53.84.62 1.33s-.12.93-.63 1.32c-.32.25-.74.45-1.25.58-.51.13-.92.21-1.23.24s-.78.05-1.42.06c-.67.03-1.38-.07-2.14-.3-.76-.23-1.41-.55-1.94-.96-.53-.2-.74-.7-.62-1.5Z"/>
  </g>
  <path class="cls-2" d="M221.48 109.4c9.88-2.5 50.04-12.37 60.2-15.2m-58.62 14.46c10.28-2.86 51.08-13.55 60.82-16.1"/>
  <path class="cls-2" d="M263.33 106.79c6.58-5.32 12.78-7.99 20.55-14.23m-20.55 14.23c5.46-3.85 9.72-6.9 20.55-14.23M258.99 90.25c7.83-.74 15.22 1.14 24.89 2.31m-24.89-2.31c6.45-.01 11.72.78 24.89 2.31"/>
  <path d="M332.65 2.39c32.77 1.22 65.18-.82 140 0m-140 0c56.64-2.03 110.69-1.67 140 0m0 0c19.47.27 31.03 11.96 30 30m-30-30c19.08-.57 29.96 7.86 30 30m0 0c-.88 15.52.81 33.13 0 60m0-60c-1.18 18.81-.86 39.12 0 60m0 0c-1.42 20.53-11.68 31.81-30 30m30-30c-1.95 22.26-10.65 28.13-30 30m0 0c-38.73-1.83-81.57.31-140 0m140 0c-41.99-1.02-82.27-.54-140 0m0 0c-21.41-1.31-31.06-9.24-30-30m30 30c-18.49-1.97-28.7-10.97-30-30m0 0c1.84-24.39-.85-46.92 0-60m0 60c-.46-22.79-.89-44.84 0-60m0 0c1.84-18.8 10.1-29.03 30-30m-30 30c.2-19.51 9.58-29.56 30-30" style="stroke:#f08c00;fill:none;stroke-linecap:round;stroke-width:2px"/>
  <g class="cls-1">
    <path class="cls-8" d="M318.72 53.11c0-.13-.07-.35-.2-.66-.08-.08-.13-.12-.14-.12l-.2-.1c-.28.07-.88.18-1.79.33-.91.15-1.54.3-1.89.43-.24.07-.43.1-.58.1-.16 0-.34-.03-.54-.08h-.12c-.05.04-.23.2-.52.49-.29.29-.57.55-.83.8s-.44.4-.53.47c-.15.11-.39.27-.72.49s-.57.39-.72.51c-.47 0-.7-.13-.7-.38-.08-.44.08-.9.48-1.38l1.9-1.76c.64-.73 1.35-1.64 2.14-2.72.79-1.08 1.39-1.87 1.82-2.36.13-.2.35-.53.66-1s.53-.82.67-1.06c.14-.24.32-.55.53-.94.21-.39.38-.76.5-1.11s.22-.72.3-1.11c0-.01.03-.14.09-.37.06-.23.08-.36.07-.39.31-.43.62-.65.94-.66.12-.01.2-.02.24-.02.27 0 .49.09.68.28s.27.39.26.62c0 .08-.02.37-.06.87s-.07.92-.1 1.25c-.01.21-.03.49-.05.84-.02.35-.04.62-.05.83-.01.21-.03.36-.04.45.01.67.02 1.17.01 1.5 0 .33-.02.83-.04 1.49s-.03 1.16-.03 1.51c.13.13.29.2.48.2.03 0 .1 0 .22.03.12.02.21.04.28.05.07.01.14.03.23.06s.16.07.22.12c.06.05.11.12.15.2.01.03.02.08 0 .16s-.02.13-.03.16c-.15.13-.53.35-1.16.66-.05.01-.11.05-.16.1-.07.19-.04.53.08 1.02s.18.77.18.84c.01.12.04.3.08.55s.07.44.08.57c.01.13-.01.29-.08.47s-.19.34-.36.47c-.15.08-.31.12-.5.12-.17 0-.34-.04-.5-.12-.2-.16-.46-.49-.78-.98l-.1-.2c-.01-.17.03-.43.12-.76s.13-.59.1-.76Zm-3.94-2.2s0 .03.03.06.06.04.09.04h.52c.27 0 .46-.01.59-.02s.31-.02.56-.04c.25-.02.45-.04.61-.07.16-.03.34-.07.54-.12.2-.05.38-.11.54-.18l.14-.1.08-.98v-.92l-.02-1.76v-.92c-.21.13-.43.43-.66.88s-.43.77-.62.94c-.27.44-.7 1.04-1.3 1.79-.6.75-.97 1.22-1.1 1.41ZM322.86 50.63c.07-.57.19-1.34.38-2.29s.31-1.62.38-2.01c.2-.73.28-1.66.24-2.78-.25-.12-.46-.25-.62-.38-.32-.35-.45-.69-.4-1.02-.05-.33.04-.63.28-.88.24-.25.53-.38.88-.38.17 0 .34.04.5.12.08.08.29.21.64.38.08.08.16.12.24.12.35.17.56.26.64.26 1.47.27 2.86.65 4.18 1.14 1.92.59 3.35 1.51 4.3 2.78.03.08.08.19.16.32s.14.24.17.32c.03.08.05.18.04.29 0 .11-.05.22-.13.33-.28.52-.74.95-1.38 1.28-.63.27-1.61.48-2.96.65s-2.17.28-2.48.35c-.52.21-1.03.3-1.52.26-.68.07-1.19.19-1.52.38-.05.05-.09.14-.12.26-.07.17-.11.35-.14.54-.03.19-.03.36-.02.52s.01.35 0 .58c-.04.65.05 1.29.28 1.9.01.09 0 .19-.02.3-.03.11-.06.2-.09.28s-.08.18-.15.3c-.07.12-.11.2-.12.24-.44.44-.82.61-1.14.5-.51-.4-.76-.9-.76-1.5.03-.89.11-1.95.26-3.16Zm2.36-3.2h.2c.36 0 1.02.05 1.98.16.24-.04.75-.12 1.52-.24s1.37-.21 1.78-.26c.07-.01.21-.04.42-.08s.36-.07.45-.1c.09-.03.21-.06.37-.11s.3-.1.42-.15c.12-.05.24-.12.36-.2.01-.01.02-.06.02-.13s0-.12-.02-.13c-.07-.09-.17-.2-.32-.32s-.29-.22-.42-.31-.29-.18-.47-.29c-.18-.11-.28-.17-.31-.2-.47-.07-1.19-.26-2.17-.58-.98-.32-1.65-.51-2.01-.56-.05 0-.15 0-.29-.02-.14-.01-.26-.01-.36 0-.1.01-.18.06-.23.14-.04.05-.11.19-.21.41-.1.22-.16.34-.17.35-.01.17-.11.59-.29 1.25s-.26 1.12-.25 1.37ZM335.88 53.67l2.08-.52c.29-.07.46-.19.5-.38.15-.33.28-1.12.4-2.36.12-1.24.21-2.01.28-2.3.21-1.52.29-2.66.22-3.42-.2-.08-.39-.12-.58-.12-.11 0-.28.02-.53.05-.25.03-.44.05-.57.05-.11.07-.25.1-.44.1-.23 0-.42-.03-.58-.1-.28-.19-.45-.53-.5-1.02-.01-.12.1-.3.34-.55.24-.25.49-.45.74-.61.31-.03.62.07.94.28h1.52c.24-.08.37-.13.38-.14.03-.01.11-.1.26-.25s.27-.24.38-.25c.37-.03.63.06.76.26h.88c.15-.03.29-.06.44-.09s.23-.06.26-.07c.03-.01.09-.02.18-.03h.24c.07 0 .2.02.4.03h.48c.28.13.52.36.72.67.2.31.26.6.18.85-.19.08-.36.15-.51.2-.15.05-.29.1-.42.14s-.23.07-.31.09c-.08.02-.17.03-.28.04h-.72c-.35 0-.65.02-.92.06-.04 0-.07 0-.1.02l-.42.08s-.06.02-.1.02c-.01 0-.04.02-.07.05s-.05.06-.05.07c-.12.47-.29 1.49-.51 3.06-.22 1.57-.38 2.58-.49 3.02-.01.12-.04.34-.07.67-.03.33-.05.57-.06.72v.65c0 .03.04.07.13.13s.17.1.25.11c1.45-.19 2.41-.27 2.86-.24.01 0 .11 0 .28.03.17.02.3.04.39.06.09.02.2.05.33.09.13.04.24.1.31.17s.12.16.13.27c.04.12.03.27-.03.45s-.14.28-.23.31c-.4.15-1.37.36-2.9.64-.07 0-.13 0-.18.02l-.66.08c-.05.01-.11.02-.18.02-.45.08-.83.25-1.14.5h-.62l-.52-.14c-.23.01-.51.06-.85.13-.34.07-.58.12-.73.13-.48.11-.88-.14-1.2-.74l.2-1ZM358.06 45.21c.89-1.21 1.78-2.01 2.66-2.4.52-.32 1.05-.45 1.58-.4.08 0 .2 0 .36.01s.27 0 .34 0h.12s.12.02.28.07c.16.05.25.06.28.05h.08s.07-.13.17-.26.17-.21.21-.24c.28-.08.53.05.74.38.09.2.19.51.3.94.04.11.11.25.22.44.6.76.9 1.67.9 2.72v.7c-.16.43-.41.64-.76.64-.52-.12-.81-.21-.88-.26l-.04-.04s-.05-.03-.06-.04l-.02-.04c-.19-.48-.36-1.07-.52-1.78-.07-.29-.15-.5-.24-.62-.08-.07-.2-.19-.37-.38s-.32-.33-.47-.42c-.15-.09-.31-.13-.5-.1-.23 0-.45.04-.67.11s-.4.15-.55.24c-.15.09-.32.23-.53.42s-.36.34-.46.45c-.1.11-.26.29-.47.55-.21.26-.35.43-.42.51-1.21 2.04-1.29 3.6-.24 4.68.71.88 1.8 1.51 3.28 1.9.13.05.21.09.22.1.04 0 .34-.02.89-.07s1-.1 1.35-.17c.23-.05.47-.08.72-.08.19 0 .46.02.81.07.35.05.57.11.65.19.11.13.16.28.16.45s-.05.31-.16.43c-.29.24-.5.37-.62.38-1.01.33-1.85.53-2.5.58-.8 0-1.65-.14-2.54-.41s-1.65-.64-2.26-1.09c-.59-.33-1.1-.79-1.55-1.36-.45-.57-.74-1.17-.87-1.8-.29-1.41.17-3.1 1.4-5.06ZM370.56 51.35c.01-.8.06-1.88.14-3.23.08-1.35.13-2.3.14-2.83-.01-.65.01-1.87.08-3.66s.08-3.09.04-3.92c.11-.35.31-.52.6-.52.37 0 .68.21.92.64 0 .17 0 .33.02.48l.08 1.44c.01.15.02.31.02.48-.03 1.25-.11 3.09-.25 5.5s-.22 4.12-.25 5.12c.01.19.03.47.06.86s.05.67.07.85c.02.18.05.41.1.68.05.27.11.52.2.74.09.22.2.44.33.65.01.19-.03.35-.14.5-.17.11-.39.16-.66.16-.31 0-.55-.05-.72-.16-.23-.24-.4-.54-.52-.9s-.19-.64-.22-.84-.04-.57-.04-1.11v-.93ZM374.58 43.75c.08-.2.22-.36.43-.49s.42-.18.65-.15c.08-.01.15-.01.22 0s.14.04.21.08.13.07.17.1c.04.03.1.09.17.18s.12.15.15.17c.03.02.08.09.16.21l.12.16c.05.13.31.43.76.88.09.13.14.29.15.47 0 .18-.04.32-.15.43h-.44c-.23.04-.46.03-.69-.04-.23-.07-.54-.2-.92-.4s-.58-.31-.61-.32c-.23-.13-.38-.32-.45-.57-.07-.25-.05-.48.07-.71Zm1.28 10.14c-.03-.16-.07-.51-.12-1.05-.05-.54-.11-1.11-.16-1.7-.05-.59-.09-.94-.1-1.05-.03-.36-.03-.74 0-1.14.2-.35.53-.47 1-.38.17.08.35.33.52.76 0 .28.02.57.07.88s.09.57.14.78c.05.21.12.49.21.84s.16.61.2.8c0 .11 0 .28-.03.51-.02.23-.04.46-.06.67-.02.21-.03.33-.03.34-.01.04-.03.11-.05.22-.02.11-.04.19-.06.26-.02.07-.05.14-.1.21-.05.07-.1.13-.17.17-.36.07-.65-.01-.88-.24-.23-.4-.35-.69-.38-.88ZM380.74 49.19c.96-1.23 2.01-2.03 3.16-2.4.73-.09 1.12-.14 1.16-.14.83.03 1.55.28 2.16.75.61.47.94 1.12.98 1.93.01.71-.27 1.35-.85 1.94s-1.22.91-1.93.96c-.27.09-.55.14-.86.14-.69 0-1.46-.25-2.3-.76-.25-.25-.42-.38-.5-.38-.05-.03-.1-.03-.14 0-.44.67-.65 1.17-.64 1.52.15.87.61 1.6 1.4 2.21.79.61 1.62.88 2.5.83.13.05.37.06.7 0s.56-.08.67-.11.34-.09.68-.19.58-.17.71-.21c.47-.19 1.09-.31 1.86-.36h.14c.09-.03.18 0 .26.06.08.07.13.17.14.3v.74c-.48.55-1.07.84-1.78.88-.15.04-.41.11-.79.22-.38.11-.67.18-.86.23s-.45.09-.76.14c-.31.05-.6.06-.85.05-1.17.05-2.3-.25-3.38-.9-.99-.51-1.75-1.39-2.28-2.64-.2-.79-.17-1.55.1-2.3.27-.75.7-1.59 1.3-2.52Zm1.56.96c.28 0 .52.02.72.06.12.07.24.12.35.15.11.03.25.06.42.08.17.02.28.03.33.03h.8c.69-.21 1.15-.51 1.38-.9.04-.15.04-.28 0-.39s-.11-.21-.23-.29-.23-.14-.34-.18-.25-.09-.43-.15-.31-.1-.39-.13c-.32 0-.65.09-.98.27-.33.18-.6.36-.8.53-.2.17-.45.41-.76.72 0 .01-.01.04-.04.09-.03.05-.04.08-.04.11ZM395.14 49.45c-.88.75-1.68 1.67-2.4 2.78-.03.05-.2.34-.51.87s-.52.91-.63 1.15c-.15.24-.36.33-.64.26l-.88-.9v-.62c.07-.35.14-1.02.22-2.02.08-1 .13-1.59.16-1.78 0-.07 0-.13-.02-.18l-.08-.52c-.01-.05-.02-.11-.02-.18v-.08c0-.21.07-.39.21-.52.14-.13.32-.19.53-.18.43 0 .73.13.9.4.09.36.14.83.14 1.4v.74c.11-.08.32-.28.65-.61s.53-.54.61-.65c.09-.12.21-.28.35-.49.14-.21.28-.39.41-.54.13-.15.29-.3.48-.45.07-.09.15-.16.24-.21.09-.05.18-.07.27-.08s.18-.01.29-.01h.32c.15-.05.3-.04.45.03s.32.22.49.44c.17.22.28.37.33.45.05.08.15.25.31.5.41.96.62 2.01.62 3.14l.38 1.64s.04.17.13.4.13.35.13.36c.03.36-.06.61-.26.76-.04.01-.14.05-.29.11-.15.06-.27.09-.35.09-.13 0-.21-.07-.24-.2-.03-.04-.12-.19-.27-.45s-.28-.44-.37-.55c-.25-.88-.42-1.73-.5-2.54-.04-.09-.1-.3-.17-.61s-.14-.53-.21-.65c-.28-.32-.47-.49-.56-.52-.11 0-.17 0-.2.02ZM402.32 51.13l.04-1.64c0-.39-.03-.98-.1-1.78-.08-.31-.15-.49-.22-.54-.88.07-1.55.21-2.02.44-.12 0-.29.05-.52.14-.23.09-.42.13-.58.1-.09-.04-.19-.1-.28-.18-.09-.08-.19-.18-.29-.29-.1-.11-.18-.2-.25-.25-.05-.13-.07-.32-.06-.56.01-.24.06-.42.14-.54l.66-.58c.69-.01 1.73-.15 3.1-.4l.14-.16.04-3.14c.31-.33.69-.45 1.14-.36.36.28.56.63.6 1.04.04.08.07.41.08 1 .01.59.07.93.16 1.02.01 0 .08.02.19.05s.18.06.19.07c.27-.03.61-.08 1.02-.15s.71-.12.9-.13c.19-.01.53 0 1.02.02l.92.04c.57.08.79.41.64 1-.23.23-.4.35-.52.38-.31.03-.62.07-.94.12-.32.05-.72.14-1.19.25s-.79.18-.95.21l-.04.02c-.35.01-.74.1-1.18.26l-.1.14c0 .16-.01.42-.03.79-.02.37-.02.68 0 .94.01.26.05.52.12.79 0 2.33.12 3.79.36 4.36.27.24.51.37.72.38.12 0 .27-.02.46-.06.05-.01.13-.03.24-.06.11-.03.18-.04.22-.05.04 0 .1-.02.18-.05.08-.03.14-.05.17-.06.03-.01.08-.04.14-.07.06-.03.11-.07.14-.11.03-.04.08-.09.13-.14s.1-.11.15-.18.1-.14.15-.23c.05-.09.11-.18.18-.29-.01-.07 0-.23.06-.48.05-.25.09-.41.12-.48.15-.41.41-.61.8-.6.19-.03.33 0 .42.1.09.09.18.26.26.5l.1.34c-.09.65-.19 1.06-.3 1.22-.27.53-.47.9-.61 1.1-.14.2-.39.41-.75.63-.36.22-.91.45-1.66.69-.04.01-.19.07-.46.17s-.47.15-.62.15c-.61-.03-1.07-.23-1.36-.6-.04-.08-.16-.29-.36-.63-.2-.34-.34-.64-.42-.9s-.1-.54-.06-.83c-.01-.24-.05-.59-.1-1.04-.05-.45-.09-.74-.1-.86-.01-.01-.02-.03-.02-.04ZM421.52 53.71s.02-.13.06-.36.06-.36.06-.4c-.11-.56-.19-1.49-.24-2.78 0-.29-.04-.75-.13-1.37-.09-.62-.13-1.09-.13-1.41-.05-.16-.18-.5-.38-1.02v-1.9c.08-.29.25-.57.5-.84s.53-.37.82-.3c.24-.11.6.11 1.08.64v5.32c.09.21.16.64.21 1.28.05.64.1 1.05.17 1.24.04.2.09.33.16.4.04 0 .08-.01.12-.03.04-.02.08-.06.13-.12s.08-.1.11-.11c.03-.05.29-.45.8-1.2s.79-1.23.84-1.46c.12-.21.25-.53.38-.96.13-.43.26-.74.38-.94.16-.27.41-.4.76-.4.27 0 .47.09.62.28l.26.24c.08.11.14.22.19.35.05.13.07.23.07.32v.73c-.07.33-.11.69-.13 1.07-.02.38-.02.73-.01 1.04.01.31.01.66 0 1.05.08.25.17.38.26.38.17-.01.35-.17.54-.46.13-.35.42-.93.86-1.75s.73-1.43.88-1.83c.11-.43.24-.84.39-1.24.15-.4.35-.87.6-1.4.25-.53.42-.93.53-1.18l.34-1.12s0-.13.04-.34l.08-.32.32-.42c.24-.2.53-.3.86-.3.31 0 .58.1.82.3.11.07.18.15.21.25s.06.22.07.37c.01.15.03.26.06.34-.09.33-.33.82-.71 1.46s-.62 1.15-.71 1.54c-.21.44-.49 1.12-.83 2.03s-.58 1.52-.71 1.83c-.99 1.99-1.72 3.31-2.2 3.98-.2.24-.51.51-.94.82-.11.04-.2.05-.27.04-.07-.01-.18-.05-.33-.1-.15-.05-.24-.09-.28-.1-.09-.03-.18-.06-.26-.09s-.16-.09-.25-.16-.15-.13-.19-.16-.12-.11-.23-.23-.18-.2-.21-.24c-.11-.15-.2-.31-.28-.48-.08-.17-.13-.33-.16-.46s-.06-.32-.1-.55-.07-.41-.1-.53c0-.07-.04-.11-.12-.14-.27.29-.62.73-1.05 1.3-.43.57-.76.99-.97 1.24-.2.2-.35.34-.44.43-.09.09-.24.17-.45.26-.21.09-.41.12-.61.09-.12.04-.24.03-.35-.02-.11-.05-.2-.11-.26-.18-.06-.07-.14-.17-.23-.31-.09-.14-.16-.23-.2-.27-.08-.13-.12-.35-.12-.64ZM435.9 49.53c.09-.59.29-1.09.6-1.52s.74-.89 1.3-1.4c.48-.24 1.1-.36 1.86-.36.93 0 1.7.16 2.3.48 1.13.71 1.94 1.3 2.42 1.78 0 .04 0 .14.02.3.01.16 0 .29-.01.4-.02.11-.07.17-.15.18-.43.07-.86 0-1.3-.2-.11-.07-.28-.17-.52-.31-.24-.14-.42-.24-.54-.31-.12-.07-.28-.13-.48-.2-.2-.07-.39-.11-.58-.12-.11 0-.28 0-.52-.01h-.57c-.14 0-.31.03-.51.07s-.38.11-.54.2l-.12.12c-.48.64-.78 1.13-.9 1.48.03.4.03.76 0 1.07-.03.31-.03.67 0 1.07.02.4.07.75.15 1.06.09.16.15.32.16.47.01.15-.02.33-.1.53s-.14.34-.17.41-.12.23-.27.47c-.12.16-.27.24-.44.24-.19 0-.38-.08-.58-.24-.32-.2-.57-.57-.76-1.12 0-2.11.09-3.62.26-4.54ZM451.94 52.01c-.11.08-.23.25-.38.5-.71.77-1.4 1.39-2.07 1.85-.67.46-1.4.68-2.19.67-.41.05-.84 0-1.28-.17-.44-.17-.79-.4-1.04-.71-.12-.19-.2-.32-.25-.39s-.12-.19-.21-.36c-.09-.17-.16-.3-.19-.41-.03-.11-.07-.23-.11-.38-.04-.15-.06-.29-.06-.43s.02-.28.06-.43c.01-.45.16-.91.45-1.38.29-.47.58-.84.87-1.12.29-.28.67-.61 1.14-1 .09-.07.16-.12.2-.16.56-.45 1.32-.68 2.28-.68.2 0 .83.05 1.9.16.03.03.12.07.27.14s.26.14.33.21c.07.07.07.17.02.29l.26.26c.4.17.65.34.76.5.67 1.36 1.25 2.45 1.76 3.28.05.07.22.22.51.45.29.23.46.38.51.45.11.08.24.19.39.33.15.14.28.24.39.31.11.07.23.11.36.12.01.01.1.09.26.24.01.04 0 .09-.01.15-.02.06-.04.13-.07.21-.03.08-.05.13-.06.16-.13.2-.43.36-.88.48-.16 0-.27 0-.33.03-.06.02-.15 0-.28-.04-.13-.05-.21-.08-.26-.1-.05-.02-.14-.07-.27-.15-.13-.08-.23-.14-.3-.18l-.08-.04c-.33-.28-.79-.76-1.37-1.45s-.92-1.09-1.03-1.21Zm-5.82.62c.24.36.6.54 1.08.54.23 0 .54-.05.94-.16.65-.24 1.25-.66 1.78-1.26.52-.72.81-1.35.88-1.9 0-.04.03-.2.08-.47.05-.27.07-.46.06-.57-.27.07-.65.12-1.15.15s-.88.08-1.15.13c-.35.05-.7.22-1.06.49-.36.27-.63.53-.82.77-.19.24-.44.58-.76 1.02-.23.28-.19.7.12 1.26ZM458.12 49.55c.21-.65.52-1.17.93-1.56.41-.39.94-.71 1.61-.98.28-.08.51-.12.68-.12.09 0 .31.03.66.08 1.57.41 2.69 1.11 3.34 2.08.85.83 1.19 2.09 1.02 3.78-.2.63-.67 1.15-1.41 1.57s-1.45.61-2.13.57c-.61.15-1.2.04-1.75-.31s-1.11-.84-1.67-1.45h-.08c0 .12 0 .63-.03 1.53-.02.9-.03 1.57-.03 2.01-.11 1.43.23 2.81 1.02 4.16.13.25.13.55 0 .9-.27.31-.48.47-.64.5-.11.01-.19.02-.24.03-.05 0-.13-.03-.22-.1s-.16-.13-.2-.18-.1-.12-.18-.21c-.08-.09-.13-.15-.16-.18-.53-.96-.87-2.56-1.02-4.8v-2.48c0-.17 0-.54.02-1.09s.04-.98.08-1.28.09-.68.16-1.14.15-.9.26-1.33Zm2.8 2.52c.05.08.21.26.48.53s.44.44.52.49c.28.16.61.24.98.24.8 0 1.32-.29 1.56-.88.17-.56.17-1.06 0-1.51-.18-.45-.52-.91-1.01-1.39-.17-.16-.31-.27-.4-.34-.09-.07-.22-.13-.39-.19s-.32-.05-.47.03c-.56.27-1.03.89-1.4 1.88v.36c0 .17 0 .32.02.44s.06.23.13.34ZM467.98 49.55c.21-.65.52-1.17.93-1.56.41-.39.94-.71 1.61-.98.28-.08.51-.12.68-.12.09 0 .31.03.66.08 1.57.41 2.69 1.11 3.34 2.08.85.83 1.19 2.09 1.02 3.78-.2.63-.67 1.15-1.41 1.57-.74.42-1.45.61-2.13.57-.61.15-1.2.04-1.75-.31s-1.11-.84-1.67-1.45h-.08c0 .12-.01.63-.03 1.53-.02.9-.03 1.57-.03 2.01-.11 1.43.23 2.81 1.02 4.16.13.25.13.55 0 .9-.27.31-.48.47-.64.5-.11.01-.19.02-.24.03-.05 0-.13-.03-.22-.1s-.16-.13-.2-.18-.1-.12-.18-.21c-.08-.09-.13-.15-.16-.18-.53-.96-.87-2.56-1.02-4.8v-1.19c0-.69-.01-1.12-.01-1.29s0-.54.02-1.09c.01-.55.04-.98.08-1.28s.09-.68.16-1.14c.07-.46.15-.9.26-1.33Zm2.8 2.52c.05.08.21.26.48.53s.44.44.52.49c.28.16.61.24.98.24.8 0 1.32-.29 1.56-.88.17-.56.17-1.06 0-1.51-.18-.45-.52-.91-1.01-1.39-.17-.16-.31-.27-.4-.34-.09-.07-.22-.13-.39-.19s-.32-.05-.47.03c-.56.27-1.03.89-1.4 1.88 0 .07 0 .19-.01.36 0 .17 0 .32.02.44s.06.23.13.34ZM478.9 49.19c.96-1.23 2.01-2.03 3.16-2.4.73-.09 1.12-.14 1.16-.14.83.03 1.55.28 2.16.75.61.47.94 1.12.98 1.93.01.71-.27 1.35-.85 1.94s-1.22.91-1.93.96c-.27.09-.55.14-.86.14-.69 0-1.46-.25-2.3-.76-.25-.25-.42-.38-.5-.38-.05-.03-.1-.03-.14 0-.44.67-.65 1.17-.64 1.52.15.87.61 1.6 1.4 2.21.79.61 1.62.88 2.5.83.13.05.37.06.7 0 .33-.05.56-.08.67-.11s.34-.09.68-.19.58-.17.71-.21c.47-.19 1.09-.31 1.86-.36h.14c.09-.03.18 0 .26.06.08.07.13.17.14.3v.74c-.48.55-1.07.84-1.78.88-.15.04-.41.11-.79.22-.38.11-.67.18-.86.23-.19.05-.45.09-.76.14-.31.05-.6.06-.85.05-1.17.05-2.3-.25-3.38-.9-.99-.51-1.75-1.39-2.28-2.64-.2-.79-.17-1.55.1-2.3.27-.75.7-1.59 1.3-2.52Zm1.56.96c.28 0 .52.02.72.06.12.07.24.12.35.15.11.03.25.06.42.08.17.02.28.03.33.03h.8c.69-.21 1.15-.51 1.38-.9.04-.15.04-.28 0-.39s-.11-.21-.23-.29-.23-.14-.34-.18c-.11-.04-.25-.09-.43-.15s-.31-.1-.39-.13c-.32 0-.65.09-.98.27-.33.18-.6.36-.8.53-.2.17-.45.41-.76.72 0 .01-.01.04-.04.09s-.04.08-.04.11ZM488.5 49.53c.09-.59.29-1.09.6-1.52s.74-.89 1.3-1.4c.48-.24 1.1-.36 1.86-.36.93 0 1.7.16 2.3.48 1.13.71 1.94 1.3 2.42 1.78 0 .04 0 .14.02.3.01.16 0 .29 0 .4-.02.11-.07.17-.15.18-.43.07-.86 0-1.3-.2-.11-.07-.28-.17-.52-.31-.24-.14-.42-.24-.54-.31-.12-.07-.28-.13-.48-.2-.2-.07-.39-.11-.58-.12-.11 0-.28 0-.52-.01h-.57c-.14 0-.31.03-.51.07s-.38.11-.54.2l-.12.12c-.48.64-.78 1.13-.9 1.48.03.4.03.76 0 1.07s-.03.67 0 1.07c.02.4.07.75.15 1.06.09.16.15.32.16.47.01.15-.02.33-.1.53s-.14.34-.17.41-.12.23-.27.47c-.12.16-.27.24-.44.24-.19 0-.38-.08-.58-.24-.32-.2-.57-.57-.76-1.12 0-2.11.09-3.62.26-4.54Z"/>
  </g>
  <g class="cls-1">
    <path class="cls-8" d="M329.78 70.69c.71-2.48 1.51-4.21 2.4-5.18.64-.61 1.08-.97 1.31-1.08s.73-.21 1.49-.32c.03.03.11.08.24.16s.22.16.27.23.04.16 0 .25c0 .01 0 .04-.02.07-.01.03-.02.06-.03.07 0 .01-.02.03-.03.05-.01.02-.03.03-.04.04-.01 0-.03.02-.06.04s-.06.04-.09.05c-.03.01-.07.03-.11.06-.32.07-.61.23-.86.48-.25.25-.5.56-.74.92s-.43.61-.56.74c-.35.53-.64 1.13-.89 1.79-.25.66-.37 1.12-.37 1.39v1.14c0 .96.59 2.23 1.78 3.8l.38.38c.75.75 1.29 1.26 1.63 1.54.34.28.72.53 1.15.74.51.49.81.85.91 1.08s.14.62.11 1.18c0 .15-.07.27-.22.37s-.28.15-.4.15c-.28-.04-.6-.22-.97-.55-.37-.33-.66-.53-.87-.61-.81-.64-1.85-1.66-3.1-3.05s-1.89-2.4-1.92-3.01c-.25-.65-.38-1.63-.38-2.92ZM339.46 74.57c-.11-.15-.23-.27-.38-.38-1.2-.29-1.75-.76-1.64-1.4-.04-.27 0-.51.12-.72.12-.21.3-.31.54-.3.13-.01.32.02.56.09s.44.08.6.03c0-.08 0-.44-.02-1.08-.01-.64-.02-1.11-.02-1.42-.01-.31.02-.77.1-1.38s.13-1 .14-1.16c-.03-.27 0-.52.08-.75s.23-.51.44-.83c.21-.32.33-.51.36-.56.29-.36.71-.54 1.26-.54.25 0 .59.05 1.02.16.52.21 1.04.54 1.55.97s1.07.97 1.66 1.6c.59.63 1.04 1.08 1.35 1.35.37.49.58.79.62.88.07.11.11.22.13.34.02.12.03.27.02.44v.36c-.04.05-.1.17-.17.35-.07.18-.15.31-.24.4-.09.09-.2.1-.35.03-.31.08-.56-.09-.76-.52-.08-.28-.12-.58-.12-.9-.07-.07-.3-.32-.69-.75-.39-.43-.63-.69-.71-.77-.09-.07-.43-.36-1.02-.88-.59-.52-1.01-.81-1.26-.88-.41-.12-.77-.05-1.07.21-.3.26-.49.61-.57 1.05-.2 1.79-.2 3.39 0 4.8l.26.14c.6.13 1.4.27 2.41.4 1.01.13 1.76.25 2.27.36.83.27 1.41.56 1.76.88.05.2.02.39-.11.58-.13.19-.3.29-.53.3-.21.05-.46.08-.74.08-.36 0-.9-.07-1.63-.22s-1.16-.23-1.29-.24c-.47-.09-.85-.14-1.16-.14-.33 0-.66.05-.98.14v.16l-.02.44v.16c-.05.55.02 1.25.21 2.1s.3 1.47.31 1.84c0 .09-.05.18-.14.27-.09.09-.21.18-.35.27s-.23.15-.27.18c-.13-.03-.25-.07-.36-.13-.11-.06-.19-.12-.25-.17-.06-.05-.12-.14-.18-.27s-.1-.22-.12-.29c-.02-.07-.06-.19-.11-.37s-.09-.31-.12-.39c-.25-.91-.38-2.21-.38-3.92ZM348.18 77.23v-2.16c-.09-.15-.14-.36-.14-.64s.05-.49.14-.62c.2-.15.43-.3.7-.46s.56-.33.88-.52.55-.33.7-.42c.56-.33 1.26-.5 2.1-.5.99 0 1.94.21 2.85.64.91.43 1.67 1.01 2.27 1.76.69.95.86 1.83.5 2.66-.85 1.47-2.12 2.39-3.8 2.78-.21.08-.45.14-.71.18s-.47.06-.63.07h-.76c-.35 0-.57-.01-.68-.01-.68-.15-1.15-.25-1.41-.32s-.54-.2-.83-.41c-.29-.21-.51-.45-.65-.73-.14-.28-.32-.71-.53-1.3Zm1.9 0c.09.19.25.39.46.61.21.22.4.35.56.39.31.16.75.24 1.32.24.53 0 1.09-.08 1.67-.23.58-.15 1.12-.42 1.61-.8.49-.38.77-.83.84-1.35.01-.16.02-.29.02-.38s-.04-.2-.13-.33-.16-.22-.23-.29c-.07-.07-.16-.15-.28-.26-.12-.11-.21-.19-.26-.26-1.13-.63-1.99-.94-2.58-.94-.29 0-.57.06-.84.18-.12.04-.25.13-.38.26-.39.36-.64.57-.76.62-.04.04-.12.11-.23.22-.11.11-.21.2-.29.27s-.16.16-.23.26-.12.19-.13.27c-.08.15-.13.31-.14.5-.01.19 0 .36 0 .51s.02.32 0 .51ZM359.4 74.53c.09-.59.29-1.09.6-1.52s.74-.89 1.3-1.4c.48-.24 1.1-.36 1.86-.36.93 0 1.7.16 2.3.48 1.13.71 1.94 1.3 2.42 1.78 0 .04 0 .14.02.3.01.16 0 .29-.01.4-.02.11-.07.17-.15.18-.43.07-.86 0-1.3-.2-.11-.07-.28-.17-.52-.31-.24-.14-.42-.24-.54-.31-.12-.07-.28-.13-.48-.2-.2-.07-.39-.11-.58-.12-.11 0-.28 0-.52-.01h-.57c-.14 0-.31.03-.51.07s-.38.11-.54.2l-.12.12c-.48.64-.78 1.13-.9 1.48.03.4.03.76 0 1.07-.03.31-.03.67 0 1.07.02.4.07.75.15 1.06.09.16.15.32.16.47.01.15-.02.33-.1.53s-.14.34-.17.41-.12.23-.27.47c-.12.16-.27.24-.44.24-.19 0-.38-.08-.58-.24-.32-.2-.57-.57-.76-1.12 0-2.11.09-3.62.26-4.54ZM378.34 78.85v-8.98l-.64-.88c-.07-.57.23-1.01.88-1.32.59-.21 1.43-.43 2.54-.66 1.11-.23 1.91-.41 2.4-.56.75-.31 1.67-.51 2.78-.62.04.01.16 0 .36-.01.2-.02.45-.04.74-.07.29-.03.54-.04.74-.04.33 0 .57.04.7.12.31 0 .59.15.86.44.27.29.36.6.28.92.05.16.03.32-.06.47-.09.15-.23.26-.4.33-.16.04-.32 0-.48-.12l-.22-.16c-.08-.07-.16-.11-.24-.12-1.8-.19-4.08.19-6.84 1.14-.09.05-.28.13-.55.23s-.42.15-.45.15c-.12.04-.25.13-.38.26l-.26.26v1.26c0 1.03.05 1.79.14 2.28.12 0 .23 0 .32.02l1 .08c.09.01.2.02.32.02.44-.04 1.03-.16 1.76-.36s1.33-.33 1.8-.38c.92-.11 1.45-.16 1.6-.16.33 0 .63.05.9.14.24.13.37.31.4.54.03.23-.06.43-.26.6-.2.11-.62.21-1.27.31s-1.02.16-1.13.19c-.4.15-1.05.33-1.95.56s-1.48.38-1.73.46c-.04 0-.19.06-.45.17-.26.11-.4.18-.43.21h-.14l-.62-.12-.12.12c-.09 1.27-.05 2.19.12 2.78v.14c.03.8-.14 1.29-.5 1.48-.15.12-.39.21-.72.26-.36-.25-.57-.47-.64-.64-.03-.07-.04-.14-.04-.22-.08-.19-.12-.36-.12-.52ZM389.48 74.53c.09-.59.29-1.09.6-1.52s.74-.89 1.3-1.4c.48-.24 1.1-.36 1.86-.36.93 0 1.7.16 2.3.48 1.13.71 1.94 1.3 2.42 1.78 0 .04 0 .14.02.3.01.16 0 .29 0 .4-.02.11-.07.17-.15.18-.43.07-.86 0-1.3-.2-.11-.07-.28-.17-.52-.31-.24-.14-.42-.24-.54-.31-.12-.07-.28-.13-.48-.2-.2-.07-.39-.11-.58-.12-.11 0-.28 0-.52-.01h-.57c-.14 0-.31.03-.51.07s-.38.11-.54.2l-.12.12c-.48.64-.78 1.13-.9 1.48.03.4.03.76 0 1.07s-.03.67 0 1.07c.02.4.07.75.15 1.06.09.16.15.32.16.47.01.15-.02.33-.1.53s-.14.34-.17.41-.12.23-.27.47c-.12.16-.27.24-.44.24-.19 0-.38-.08-.58-.24-.32-.2-.57-.57-.76-1.12 0-2.11.09-3.62.26-4.54Z"/>
    <path class="cls-8" d="M397.94 77.23v-2.16c-.09-.15-.14-.36-.14-.64s.05-.49.14-.62c.2-.15.43-.3.7-.46s.56-.33.88-.52c.32-.19.55-.33.7-.42.56-.33 1.26-.5 2.1-.5.99 0 1.94.21 2.85.64s1.67 1.01 2.27 1.76c.69.95.86 1.83.5 2.66-.85 1.47-2.12 2.39-3.8 2.78-.21.08-.45.14-.71.18-.26.04-.47.06-.63.07h-.76c-.35 0-.57-.01-.68-.01-.68-.15-1.15-.25-1.41-.32s-.54-.2-.83-.41-.51-.45-.65-.73c-.14-.28-.32-.71-.53-1.3Zm1.9 0c.09.19.25.39.46.61.21.22.4.35.56.39.31.16.75.24 1.32.24.53 0 1.09-.08 1.67-.23.58-.15 1.12-.42 1.61-.8s.77-.83.84-1.35c.01-.16.02-.29.02-.38s-.04-.2-.13-.33-.16-.22-.23-.29-.16-.15-.28-.26c-.12-.11-.21-.19-.26-.26-1.13-.63-1.99-.94-2.58-.94-.29 0-.57.06-.84.18-.12.04-.25.13-.38.26-.39.36-.64.57-.76.62-.04.04-.12.11-.23.22-.11.11-.21.2-.29.27s-.16.16-.23.26-.12.19-.13.27c-.08.15-.13.31-.14.5-.01.19 0 .36.01.51.02.15.02.32-.01.51ZM413.96 74.45c-.88.75-1.68 1.67-2.4 2.78-.03.05-.2.34-.51.87s-.52.91-.63 1.15c-.15.24-.36.33-.64.26l-.88-.9v-.62c.07-.35.14-1.02.22-2.02.08-1 .13-1.59.16-1.78 0-.07 0-.13-.02-.18l-.08-.52c-.01-.05-.02-.11-.02-.18v-.08c0-.21.07-.39.21-.52.14-.13.32-.19.53-.18.43 0 .73.13.9.4.09.36.14.83.14 1.4v.74c.11-.08.32-.28.65-.61s.53-.54.61-.65c.09-.12.21-.28.35-.49.14-.21.28-.39.41-.54.13-.15.29-.3.48-.45.07-.09.15-.16.24-.21.09-.05.18-.07.27-.08s.18-.01.29-.01h.32c.15-.05.3-.04.45.03s.32.22.49.44c.17.22.28.37.33.45.05.08.15.25.31.5.41.96.62 2.01.62 3.14l.38 1.64s.04.17.13.4.13.35.13.36c.03.36-.06.61-.26.76-.04.01-.14.05-.29.11-.15.06-.27.09-.35.09-.13 0-.21-.07-.24-.2-.03-.04-.12-.19-.27-.45s-.28-.44-.37-.55c-.25-.88-.42-1.73-.5-2.54-.04-.09-.1-.3-.17-.61s-.14-.53-.21-.65c-.28-.32-.47-.49-.56-.52-.11 0-.17 0-.2.02ZM421.14 76.13l.04-1.64c0-.39-.03-.98-.1-1.78-.08-.31-.15-.49-.22-.54-.88.07-1.55.21-2.02.44-.12 0-.29.05-.52.14-.23.09-.42.13-.58.1-.09-.04-.19-.1-.28-.18-.09-.08-.19-.18-.29-.29-.1-.11-.18-.2-.25-.25-.05-.13-.07-.32-.06-.56.01-.24.06-.42.14-.54l.66-.58c.69-.01 1.73-.15 3.1-.4l.14-.16.04-3.14c.31-.33.69-.45 1.14-.36.36.28.56.63.6 1.04.04.08.07.41.08 1 .01.59.07.93.16 1.02.01 0 .08.02.19.05s.18.06.19.07c.27-.03.61-.08 1.02-.15.41-.07.71-.12.9-.13.19-.01.53 0 1.02.02l.92.04c.57.08.79.41.64 1-.23.23-.4.35-.52.38-.31.03-.62.07-.94.12-.32.05-.72.14-1.19.25-.47.11-.79.18-.95.21l-.04.02c-.35.01-.74.1-1.18.26l-.1.14c0 .16 0 .42-.03.79-.02.37-.02.68 0 .94.01.26.05.52.12.79 0 2.33.12 3.79.36 4.36.27.24.51.37.72.38.12 0 .27-.02.46-.06.05-.01.13-.03.24-.06.11-.03.18-.04.22-.05.04 0 .1-.02.18-.05.08-.03.14-.05.17-.06.03-.01.08-.04.14-.07.06-.03.11-.07.14-.11s.08-.09.13-.14c.05-.05.1-.11.15-.18s.1-.14.15-.23c.05-.09.11-.18.18-.29-.01-.07 0-.23.06-.48.05-.25.09-.41.12-.48.15-.41.41-.61.8-.6.19-.03.33 0 .42.1s.18.26.26.5l.1.34c-.09.65-.19 1.06-.3 1.22-.27.53-.47.9-.61 1.1-.14.2-.39.41-.75.63-.36.22-.91.45-1.66.69-.04.01-.19.07-.46.17s-.47.15-.62.15c-.61-.03-1.07-.23-1.36-.6-.04-.08-.16-.29-.36-.63s-.34-.64-.42-.9-.1-.54-.06-.83c-.01-.24-.05-.59-.1-1.04-.05-.45-.09-.74-.1-.86-.01-.01-.02-.03-.02-.04ZM429.5 74.63c.03-.32.39-.65 1.1-.98.21-.05.47-.08.78-.08.27 0 .83.05 1.68.16h.1c.13.01.36 0 .67-.06.31-.05.56-.06.75-.02.09.01.28.02.57.03.29 0 .52.02.7.04.18.02.32.05.41.09.39.27.54.57.46.92-.2.24-.56.51-1.08.82-.12.01-.27 0-.44 0-.17-.02-.37-.05-.6-.1-.23-.05-.39-.08-.48-.09h-.78c-.13.01-.35.05-.65.11-.3.06-.57.11-.82.14s-.47.04-.67.03c-.45.03-.85-.03-1.2-.18-.36-.36-.53-.63-.5-.82ZM439.36 74.19c.96-1.23 2.01-2.03 3.16-2.4.73-.09 1.12-.14 1.16-.14.83.03 1.55.28 2.16.75.61.47.94 1.12.98 1.93.01.71-.27 1.35-.85 1.94s-1.22.91-1.93.96c-.27.09-.55.14-.86.14-.69 0-1.46-.25-2.3-.76-.25-.25-.42-.38-.5-.38-.05-.03-.1-.03-.14 0-.44.67-.65 1.17-.64 1.52.15.87.61 1.6 1.4 2.21.79.61 1.62.88 2.5.83.13.05.37.06.7 0s.56-.08.67-.11.34-.09.68-.19.58-.17.71-.21c.47-.19 1.09-.31 1.86-.36h.14c.09-.03.18 0 .26.06.08.07.13.17.14.3v.74c-.48.55-1.07.84-1.78.88-.15.04-.41.11-.79.22-.38.11-.67.18-.86.23s-.45.09-.76.14c-.31.05-.6.06-.85.05-1.17.05-2.3-.25-3.38-.9-.99-.51-1.75-1.39-2.28-2.64-.2-.79-.17-1.55.1-2.3.27-.75.7-1.59 1.3-2.52Zm1.56.96c.28 0 .52.02.72.06.12.07.24.12.35.15.11.03.25.06.42.08.17.02.28.03.33.03h.8c.69-.21 1.15-.51 1.38-.9.04-.15.04-.28 0-.39s-.11-.21-.23-.29-.23-.14-.34-.18-.25-.09-.43-.15-.31-.1-.39-.13c-.32 0-.65.09-.98.27-.33.18-.6.36-.8.53-.2.17-.45.41-.76.72 0 .01-.01.04-.04.09-.03.05-.04.08-.04.11ZM453.76 74.45c-.88.75-1.68 1.67-2.4 2.78-.03.05-.2.34-.51.87s-.52.91-.63 1.15c-.15.24-.36.33-.64.26l-.88-.9v-.62c.07-.35.14-1.02.22-2.02.08-1 .13-1.59.16-1.78 0-.07 0-.13-.02-.18l-.08-.52c-.01-.05-.02-.11-.02-.18v-.08c0-.21.07-.39.21-.52.14-.13.32-.19.53-.18.43 0 .73.13.9.4.09.36.14.83.14 1.4v.74c.11-.08.32-.28.65-.61s.53-.54.61-.65c.09-.12.21-.28.35-.49.14-.21.28-.39.41-.54.13-.15.29-.3.48-.45.07-.09.15-.16.24-.21.09-.05.18-.07.27-.08s.18-.01.29-.01h.32c.15-.05.3-.04.45.03s.32.22.49.44c.17.22.28.37.33.45.05.08.15.25.31.5.41.96.62 2.01.62 3.14l.38 1.64s.04.17.13.4.13.35.13.36c.03.36-.06.61-.26.76-.04.01-.14.05-.29.11-.15.06-.27.09-.35.09-.13 0-.21-.07-.24-.2-.03-.04-.12-.19-.27-.45s-.28-.44-.37-.55c-.25-.88-.42-1.73-.5-2.54-.04-.09-.1-.3-.17-.61s-.14-.53-.21-.65c-.28-.32-.47-.49-.56-.52-.11 0-.17 0-.2.02ZM457.7 76.47v-.14c.13-1.07.64-2.01 1.52-2.83.88-.82 1.85-1.14 2.9-.97.49.03.94.21 1.33.56s.58.75.57 1.22c0 .13-.04.22-.12.25s-.19.04-.34.02c-.15-.02-.25-.02-.3-.01-.68-.24-1.31-.33-1.9-.26-1.36.69-2.03 1.58-2.02 2.66-.11.44-.01.79.28 1.04s.66.38 1.1.38c.31 0 .57-.05.78-.16 1.43-.75 2.61-2.18 3.54-4.3 0-.29 0-.56.02-.8l.08-2.44c.01-.24.02-.51.02-.8.12-1.29.25-2.14.38-2.54.01-.19.05-.44.1-.75s.11-.64.17-.98c.06-.34.1-.56.11-.67.05-.39.27-.64.64-.76.21.01.45.08.7.21.25.13.39.27.42.43.07.16.11.34.13.54.02.2.02.38 0 .54-.01.16-.01.35 0 .56-.01.09 0 .35.05.77s.07.67.07.75c0 .49-.09 1.46-.26 2.9-.04.28-.17.68-.38 1.2-.21.52-.34.92-.38 1.2v1.28s.02.03.02.06l.1.24.02.06.38 1.28c.08.32.18.63.3.93s.27.67.46 1.1c.19.43.31.72.38.87.03.41-.06.7-.26.86-.05.08-.13.12-.22.12-.07 0-.29-.11-.66-.34-.13-.13-.26-.29-.39-.47s-.23-.34-.31-.49-.18-.35-.29-.61-.19-.45-.23-.56-.11-.32-.22-.62-.17-.48-.2-.55c-.17.11-.46.42-.85.93s-.62.8-.67.85c-.96.99-1.85 1.61-2.66 1.88-.81.11-1.31.16-1.48.16-.65 0-1.17-.17-1.56-.52-.19-.15-.35-.32-.5-.52-.21-.35-.34-.79-.39-1.34s-.04-1.02 0-1.42ZM469.94 79.73s.05-.18.14-.46c.67-.67 1.3-1 1.9-1 .72-.29 1.22-.83 1.51-1.6.29-.77.38-1.53.27-2.28-.05-.59-.2-1.27-.44-2.04s-.52-1.45-.84-2.04c-.15-.36-.5-1.08-1.05-2.16s-.92-1.71-1.09-1.88l-.04-.02-.06-.06-.32-.22s-.03-.03-.06-.04l-.04-.04c-.19-.17-.32-.33-.4-.48-.08-.15-.12-.29-.12-.43s0-.3.02-.49c0-.09.14-.2.43-.33s.46-.19.51-.19c.35.15.67.36.98.63s.57.55.79.82.45.64.69 1.09c.24.45.43.83.57 1.14.14.31.33.74.56 1.29.23.55.41.96.53 1.23.47 1.16.8 2.2.99 3.11.19.91.2 1.86 0 2.83-.07.52-.32 1.21-.76 2.08-.44.87-.99 1.43-1.64 1.7-.19.08-.39.17-.62.28-.23.11-.39.18-.48.22-.09.04-.2.08-.32.13s-.21.08-.28.09c-.07.01-.14.03-.23.04s-.19.02-.31.02c-.09 0-.19-.02-.3-.05-.11-.03-.22-.12-.33-.25-.11-.13-.17-.3-.17-.5v-.14Z"/>
  </g>
  <path d="M332.65 162.39c35.43-1.93 75.93-.6 140 0m-140 0c31.7-.75 63.71-1.3 140 0m0 0c21.18 1.69 28.54 8.35 30 30m-30-30c20.36.12 28.76 10.84 30 30m0 0c-.36 14.22.09 29.42 0 60m0-60c-.73 12.1.46 24.97 0 60m0 0c1.28 19.25-11.32 28-30 30m30-30c1.08 21.2-8.41 30.37-30 30m0 0c-44.09-1.63-89.98.39-140 0m140 0c-31.28 1.33-61.58 1.06-140 0m0 0c-18.67-1.55-29.87-9.44-30-30m30 30c-19.58 1.97-30.1-11.86-30-30m0 0c2.1-15.3-.9-28.7 0-60m0 60c.32-14.38.38-28.2 0-60m0 0c1.96-19.55 10.39-29.14 30-30m-30 30c.99-19.13 11.61-30.56 30-30" style="stroke:#2f9e44;fill:none;stroke-linecap:round;stroke-width:2px"/>
  <g class="cls-1">
    <path class="cls-6" d="M341.32 213.11c0-.13-.07-.35-.2-.66-.08-.08-.13-.12-.14-.12l-.2-.1c-.28.07-.88.18-1.79.33-.91.15-1.54.3-1.89.43-.24.07-.43.1-.58.1-.16 0-.34-.03-.54-.08h-.12c-.05.04-.23.2-.52.49-.29.29-.57.55-.83.8s-.44.4-.53.47c-.15.11-.39.27-.72.49s-.57.39-.72.51c-.47 0-.7-.13-.7-.38-.08-.44.08-.9.48-1.38l1.9-1.76c.64-.73 1.35-1.64 2.14-2.72.79-1.08 1.39-1.87 1.82-2.36.13-.2.35-.53.66-1s.53-.82.67-1.06c.14-.24.32-.55.53-.94.21-.39.38-.76.5-1.11s.22-.72.3-1.11c0-.01.03-.14.09-.37.06-.23.08-.36.07-.39.31-.43.62-.65.94-.66.12-.01.2-.02.24-.02.27 0 .49.09.68.28s.27.39.26.62c0 .08-.02.37-.06.87s-.07.92-.1 1.25c-.01.21-.03.49-.05.84-.02.35-.04.62-.05.83-.01.21-.03.36-.04.45.01.67.02 1.17.01 1.5 0 .33-.02.83-.04 1.49s-.03 1.16-.03 1.51c.13.13.29.2.48.2.03 0 .1 0 .22.03.12.02.21.04.28.05.07.01.14.03.23.06s.16.07.22.12c.06.05.11.12.15.2.01.03.02.08 0 .16s-.02.13-.03.16c-.15.13-.53.35-1.16.66-.05.01-.11.05-.16.1-.07.19-.04.53.08 1.02s.18.77.18.84c.01.12.04.3.08.55s.07.44.08.57c.01.13-.01.29-.08.47s-.19.34-.36.47c-.15.08-.31.12-.5.12-.17 0-.34-.04-.5-.12-.2-.16-.46-.49-.78-.98l-.1-.2c-.01-.17.03-.43.12-.76s.13-.59.1-.76Zm-3.94-2.2s0 .03.03.06.06.04.09.04h.52c.27 0 .46-.01.59-.02s.31-.02.56-.04c.25-.02.45-.04.61-.07.16-.03.34-.07.54-.12.2-.05.38-.11.54-.18l.14-.1.08-.98v-.92l-.02-1.76v-.92c-.21.13-.43.43-.66.88s-.43.77-.62.94c-.27.44-.7 1.04-1.3 1.79-.6.75-.97 1.22-1.1 1.41ZM345.46 210.63c.07-.57.19-1.34.38-2.29s.31-1.62.38-2.01c.2-.73.28-1.66.24-2.78-.25-.12-.46-.25-.62-.38-.32-.35-.45-.69-.4-1.02-.05-.33.04-.63.28-.88.24-.25.53-.38.88-.38.17 0 .34.04.5.12.08.08.29.21.64.38.08.08.16.12.24.12.35.17.56.26.64.26 1.47.27 2.86.65 4.18 1.14 1.92.59 3.35 1.51 4.3 2.78.03.08.08.19.16.32s.14.24.17.32c.03.08.05.18.04.29 0 .11-.05.22-.13.33-.28.52-.74.95-1.38 1.28-.63.27-1.61.48-2.96.65s-2.17.28-2.48.35c-.52.21-1.03.3-1.52.26-.68.07-1.19.19-1.52.38-.05.05-.09.14-.12.26-.07.17-.11.35-.14.54-.03.19-.03.36-.02.52s.01.35 0 .58c-.04.65.05 1.29.28 1.9.01.09 0 .19-.02.3-.03.11-.06.2-.09.28s-.08.18-.15.3c-.07.12-.11.2-.12.24-.44.44-.82.61-1.14.5-.51-.4-.76-.9-.76-1.5.03-.89.11-1.95.26-3.16Zm2.36-3.2h.2c.36 0 1.02.05 1.98.16.24-.04.75-.12 1.52-.24s1.37-.21 1.78-.26c.07-.01.21-.04.42-.08s.36-.07.45-.1c.09-.03.21-.06.37-.11s.3-.1.42-.15c.12-.05.24-.12.36-.2.01-.01.02-.06.02-.13s0-.12-.02-.13c-.07-.09-.17-.2-.32-.32s-.29-.22-.42-.31-.29-.18-.47-.29c-.18-.11-.28-.17-.31-.2-.47-.07-1.19-.26-2.17-.58-.98-.32-1.65-.51-2.01-.56-.05 0-.15 0-.29-.02-.14-.01-.26-.01-.36 0-.1.01-.18.06-.23.14-.04.05-.11.19-.21.41-.1.22-.16.34-.17.35-.01.17-.11.59-.29 1.25s-.26 1.12-.25 1.37ZM358.48 213.67l2.08-.52c.29-.07.46-.19.5-.38.15-.33.28-1.12.4-2.36.12-1.24.21-2.01.28-2.3.21-1.52.29-2.66.22-3.42-.2-.08-.39-.12-.58-.12-.11 0-.28.02-.53.05-.25.03-.44.05-.57.05-.11.07-.25.1-.44.1-.23 0-.42-.03-.58-.1-.28-.19-.45-.53-.5-1.02-.01-.12.1-.3.34-.55.24-.25.49-.45.74-.61.31-.03.62.07.94.28h1.52c.24-.08.37-.13.38-.14.03-.01.11-.1.26-.25s.27-.24.38-.25c.37-.03.63.06.76.26h.88c.15-.03.29-.06.44-.09s.23-.06.26-.07c.03-.01.09-.02.18-.03h.24c.07 0 .2.02.4.03h.48c.28.13.52.36.72.67.2.31.26.6.18.85-.19.08-.36.15-.51.2-.15.05-.29.1-.42.14s-.23.07-.31.09c-.08.02-.17.03-.28.04h-.72c-.35 0-.65.02-.92.06-.04 0-.07 0-.1.02l-.42.08s-.06.02-.1.02c-.01 0-.04.02-.07.05s-.05.06-.05.07c-.12.47-.29 1.49-.51 3.06-.22 1.57-.38 2.58-.49 3.02-.01.12-.04.34-.07.67-.03.33-.05.57-.06.72v.65c0 .03.04.07.13.13s.17.1.25.11c1.45-.19 2.41-.27 2.86-.24.01 0 .11 0 .28.03.17.02.3.04.39.06.09.02.2.05.33.09.13.04.24.1.31.17s.12.16.13.27c.04.12.03.27-.03.45s-.14.28-.23.31c-.4.15-1.37.36-2.9.64-.07 0-.13 0-.18.02l-.66.08c-.05.01-.11.02-.18.02-.45.08-.83.25-1.14.5h-.62l-.52-.14c-.23.01-.51.06-.85.13-.34.07-.58.12-.73.13-.48.11-.88-.14-1.2-.74l.2-1ZM379.54 205.69c-.15-.21-.23-.47-.26-.77s-.03-.59 0-.87c.15-.2.49-.45 1.02-.76l.12-.12c-.28-.67-.32-1.21-.12-1.64.01-.28.19-.51.53-.68.34-.17.66-.25.97-.22.27.27.48.44.64.52.73.09 1.24.22 1.52.38.07 0 .14 0 .22.02l.7.08c.08.01.15.02.22.02 1.73.48 3.21 1.03 4.42 1.64.08.08.36.3.84.66.48.36.82.68 1.02.96.2.28.3.61.3.98.01.21-.02.42-.09.61-.07.19-.15.36-.23.49-.08.13-.23.29-.44.46-.21.17-.37.3-.47.37-.1.07-.29.19-.56.36s-.44.27-.49.31c-.23.16-.49.28-.8.35s-.68.13-1.13.17c-.45.04-.73.07-.85.1v.12c.29.33.5.55.62.64.27.19.67.52 1.21 1.01s.94.82 1.21 1.01l.1.1.18.18.02.02.04.06s.02 0 .02.02l.38.34c.31.31.52.57.64.8 0 .07 0 .21.02.43.01.22 0 .42 0 .59-.02.17-.06.3-.13.38-.11.08-.21.12-.32.12s-.25-.04-.44-.12c-.48-.29-1.03-.85-1.64-1.66-.41-.31-.97-.75-1.67-1.32s-1.2-.97-1.49-1.2c-.75-.48-1.63-1.19-2.66-2.14-.21-.36-.31-.67-.28-.94-.04-.24-.02-.43.07-.58s.24-.32.45-.52c.13-.11.43-.15.9-.12.61.47 1.16.76 1.64.88.28 0 .59 0 .93-.01.34 0 .66-.01.97-.02.31 0 .62-.06.94-.16.32-.1.59-.24.82-.43.36-.24.48-.54.35-.9s-.37-.61-.73-.76c-.68-.43-1.86-.93-3.54-1.5-.61-.17-1.21-.26-1.8-.26-.68 0-1.47.13-2.36.38 0 .17.1.38.3.63s.31.46.32.63c-.15 1.52-.19 3.46-.12 5.82.03.05.06.34.1.87.04.53.09.83.14.91.04.45.04.91 0 1.38-.03.28-.16.55-.39.82-.23.27-.47.37-.71.32-.45.04-.76-.13-.92-.5-.15-1.13-.27-2.31-.38-3.54.12-2.63.17-4.36.14-5.2ZM394.38 209.19c.96-1.23 2.01-2.03 3.16-2.4.73-.09 1.12-.14 1.16-.14.83.03 1.55.28 2.16.75.61.47.94 1.12.98 1.93.01.71-.27 1.35-.85 1.94s-1.22.91-1.93.96c-.27.09-.55.14-.86.14-.69 0-1.46-.25-2.3-.76-.25-.25-.42-.38-.5-.38-.05-.03-.1-.03-.14 0-.44.67-.65 1.17-.64 1.52.15.87.61 1.6 1.4 2.21.79.61 1.62.88 2.5.83.13.05.37.06.7 0 .33-.05.56-.08.67-.11s.34-.09.68-.19.58-.17.71-.21c.47-.19 1.09-.31 1.86-.36h.14c.09-.03.18 0 .26.06.08.07.13.17.14.3v.74c-.48.55-1.07.84-1.78.88-.15.04-.41.11-.79.22-.38.11-.67.18-.86.23-.19.05-.45.09-.76.14-.31.05-.6.06-.85.05-1.17.05-2.3-.25-3.38-.9-.99-.51-1.75-1.39-2.28-2.64-.2-.79-.17-1.55.1-2.3.27-.75.7-1.59 1.3-2.52Zm1.56.96c.28 0 .52.02.72.06.12.07.24.12.35.15.11.03.25.06.42.08.17.02.28.03.33.03h.8c.69-.21 1.15-.51 1.38-.9.04-.15.04-.28 0-.39s-.11-.21-.23-.29-.23-.14-.34-.18c-.11-.04-.25-.09-.43-.15s-.31-.1-.39-.13c-.32 0-.65.09-.98.27-.33.18-.6.36-.8.53-.2.17-.45.41-.76.72 0 .01-.01.04-.04.09s-.04.08-.04.11ZM404.84 209.57c-.11-.15-.23-.27-.38-.38-1.2-.29-1.75-.76-1.64-1.4-.04-.27 0-.51.12-.72.12-.21.3-.31.54-.3.13-.01.32.02.56.09s.44.08.6.03c0-.08 0-.44-.02-1.08-.01-.64-.02-1.11-.02-1.42-.01-.31.02-.77.1-1.38s.13-1 .14-1.16c-.03-.27 0-.52.08-.75s.23-.51.44-.83c.21-.32.33-.51.36-.56.29-.36.71-.54 1.26-.54.25 0 .59.05 1.02.16.52.21 1.04.54 1.55.97s1.07.97 1.66 1.6c.59.63 1.04 1.08 1.35 1.35.37.49.58.79.62.88.07.11.11.22.13.34.02.12.03.27.02.44v.36c-.04.05-.1.17-.17.35-.07.18-.15.31-.24.4-.09.09-.2.1-.35.03-.31.08-.56-.09-.76-.52-.08-.28-.12-.58-.12-.9-.07-.07-.3-.32-.69-.75-.39-.43-.63-.69-.71-.77-.09-.07-.43-.36-1.02-.88-.59-.52-1.01-.81-1.26-.88-.41-.12-.77-.05-1.07.21-.3.26-.49.61-.57 1.05-.2 1.79-.2 3.39 0 4.8l.26.14c.6.13 1.4.27 2.41.4 1.01.13 1.76.25 2.27.36.83.27 1.41.56 1.76.88.05.2.02.39-.11.58-.13.19-.3.29-.53.3-.21.05-.46.08-.74.08-.36 0-.9-.07-1.63-.22s-1.16-.23-1.29-.24c-.47-.09-.85-.14-1.16-.14-.33 0-.66.05-.98.14v.16l-.02.44v.16c-.05.55.02 1.25.21 2.1s.3 1.47.31 1.84c0 .09-.05.18-.14.27-.09.09-.21.18-.35.27s-.23.15-.27.18c-.13-.03-.25-.07-.36-.13-.11-.06-.19-.12-.25-.17-.06-.05-.12-.14-.18-.27s-.1-.22-.12-.29c-.02-.07-.06-.19-.11-.37s-.09-.31-.12-.39c-.25-.91-.38-2.21-.38-3.92ZM415.04 209.19c.96-1.23 2.01-2.03 3.16-2.4.73-.09 1.12-.14 1.16-.14.83.03 1.55.28 2.16.75.61.47.94 1.12.98 1.93.01.71-.27 1.35-.85 1.94s-1.22.91-1.93.96c-.27.09-.55.14-.86.14-.69 0-1.46-.25-2.3-.76-.25-.25-.42-.38-.5-.38-.05-.03-.1-.03-.14 0-.44.67-.65 1.17-.64 1.52.15.87.61 1.6 1.4 2.21.79.61 1.62.88 2.5.83.13.05.37.06.7 0s.56-.08.67-.11.34-.09.68-.19.58-.17.71-.21c.47-.19 1.09-.31 1.86-.36h.14c.09-.03.18 0 .26.06.08.07.13.17.14.3v.74c-.48.55-1.07.84-1.78.88-.15.04-.41.11-.79.22-.38.11-.67.18-.86.23s-.45.09-.76.14c-.31.05-.6.06-.85.05-1.17.05-2.3-.25-3.38-.9-.99-.51-1.75-1.39-2.28-2.64-.2-.79-.17-1.55.1-2.3.27-.75.7-1.59 1.3-2.52Zm1.56.96c.28 0 .52.02.72.06.12.07.24.12.35.15.11.03.25.06.42.08.17.02.28.03.33.03h.8c.69-.21 1.15-.51 1.38-.9.04-.15.04-.28 0-.39s-.11-.21-.23-.29-.23-.14-.34-.18-.25-.09-.43-.15-.31-.1-.39-.13c-.32 0-.65.09-.98.27-.33.18-.6.36-.8.53-.2.17-.45.41-.76.72 0 .01-.01.04-.04.09-.03.05-.04.08-.04.11ZM424.64 209.53c.09-.59.29-1.09.6-1.52s.74-.89 1.3-1.4c.48-.24 1.1-.36 1.86-.36.93 0 1.7.16 2.3.48 1.13.71 1.94 1.3 2.42 1.78 0 .04 0 .14.02.3.01.16 0 .29-.01.4-.02.11-.07.17-.15.18-.43.07-.86 0-1.3-.2-.11-.07-.28-.17-.52-.31-.24-.14-.42-.24-.54-.31-.12-.07-.28-.13-.48-.2-.2-.07-.39-.11-.58-.12-.11 0-.28 0-.52-.01h-.57c-.14 0-.31.03-.51.07s-.38.11-.54.2l-.12.12c-.48.64-.78 1.13-.9 1.48.03.4.03.76 0 1.07-.03.31-.03.67 0 1.07.02.4.07.75.15 1.06.09.16.15.32.16.47.01.15-.02.33-.1.53s-.14.34-.17.41-.12.23-.27.47c-.12.16-.27.24-.44.24-.19 0-.38-.08-.58-.24-.32-.2-.57-.57-.76-1.12 0-2.11.09-3.62.26-4.54ZM434.58 209.19c.96-1.23 2.01-2.03 3.16-2.4.73-.09 1.12-.14 1.16-.14.83.03 1.55.28 2.16.75.61.47.94 1.12.98 1.93.01.71-.27 1.35-.85 1.94s-1.22.91-1.93.96c-.27.09-.55.14-.86.14-.69 0-1.46-.25-2.3-.76-.25-.25-.42-.38-.5-.38-.05-.03-.1-.03-.14 0-.44.67-.65 1.17-.64 1.52.15.87.61 1.6 1.4 2.21.79.61 1.62.88 2.5.83.13.05.37.06.7 0 .33-.05.56-.08.67-.11s.34-.09.68-.19.58-.17.71-.21c.47-.19 1.09-.31 1.86-.36h.14c.09-.03.18 0 .26.06.08.07.13.17.14.3v.74c-.48.55-1.07.84-1.78.88-.15.04-.41.11-.79.22-.38.11-.67.18-.86.23-.19.05-.45.09-.76.14-.31.05-.6.06-.85.05-1.17.05-2.3-.25-3.38-.9-.99-.51-1.75-1.39-2.28-2.64-.2-.79-.17-1.55.1-2.3.27-.75.7-1.59 1.3-2.52Zm1.56.96c.28 0 .52.02.72.06.12.07.24.12.35.15.11.03.25.06.42.08.17.02.28.03.33.03h.8c.69-.21 1.15-.51 1.38-.9.04-.15.04-.28 0-.39s-.11-.21-.23-.29-.23-.14-.34-.18c-.11-.04-.25-.09-.43-.15s-.31-.1-.39-.13c-.32 0-.65.09-.98.27-.33.18-.6.36-.8.53-.2.17-.45.41-.76.72 0 .01-.01.04-.04.09s-.04.08-.04.11ZM448.98 209.45c-.88.75-1.68 1.67-2.4 2.78-.03.05-.2.34-.51.87s-.52.91-.63 1.15c-.15.24-.36.33-.64.26l-.88-.9v-.62c.07-.35.14-1.02.22-2.02s.13-1.59.16-1.78c0-.07 0-.13-.02-.18l-.08-.52c-.01-.05-.02-.11-.02-.18v-.08c0-.21.07-.39.21-.52.14-.13.32-.19.53-.18.43 0 .73.13.9.4.09.36.14.83.14 1.4v.45c0 .18-.01.28-.01.29.11-.08.32-.28.65-.61.33-.33.53-.54.61-.65.09-.12.21-.28.35-.49.14-.21.28-.39.41-.54.13-.15.29-.3.48-.45.07-.09.15-.16.24-.21.09-.05.18-.07.27-.08.09 0 .18-.01.29-.01h.32c.15-.05.3-.04.45.03s.32.22.49.44c.17.22.28.37.33.45.05.08.15.25.31.5.41.96.62 2.01.62 3.14l.38 1.64s.04.17.13.4.13.35.13.36c.03.36-.06.61-.26.76-.04.01-.14.05-.29.11-.15.06-.27.09-.35.09-.13 0-.21-.07-.24-.2-.03-.04-.12-.19-.27-.45s-.28-.44-.37-.55c-.25-.88-.42-1.73-.5-2.54-.04-.09-.1-.3-.17-.61s-.14-.53-.21-.65c-.28-.32-.47-.49-.56-.52-.11 0-.17 0-.2.02ZM453.12 210.99c.09-.63.28-1.15.55-1.58.27-.43.68-.87 1.23-1.34.45-.52 1-.91 1.64-1.18.64-.27 1.27-.34 1.9-.22.28-.01.57.06.87.22s.51.3.64.42.34.33.65.64c.31.41.43 1.05.38 1.9-.17.32-.35.49-.52.5-.04 0-.15 0-.34.03-.19.02-.33 0-.43-.03-.1-.04-.18-.13-.23-.26-.27-.71-.47-1.1-.62-1.18-.2-.13-.43-.21-.7-.22-.27-.01-.51 0-.72.02-.32.08-.63.24-.94.49-.31.25-.54.47-.69.66-.15.19-.37.48-.65.87 0 .04-.02.17-.07.4s-.06.43-.04.62c.02.19.1.31.25.38.43.52.88.87 1.36 1.04.57.23 1.59.47 3.06.72l2.42.52c.09.08.18.2.27.37.09.17.12.29.11.37-.05.17-.18.35-.39.52-.21.17-.42.29-.63.36-.52.05-1.19-.03-2.02-.26-1.45-.27-2.43-.47-2.92-.62-1.31-.43-2.28-1.05-2.92-1.88-.43-.57-.59-1.33-.5-2.28ZM464.9 209.19c.96-1.23 2.01-2.03 3.16-2.4.73-.09 1.12-.14 1.16-.14.83.03 1.55.28 2.16.75.61.47.94 1.12.98 1.93.01.71-.27 1.35-.85 1.94s-1.22.91-1.93.96c-.27.09-.55.14-.86.14-.69 0-1.46-.25-2.3-.76-.25-.25-.42-.38-.5-.38-.05-.03-.1-.03-.14 0-.44.67-.65 1.17-.64 1.52.15.87.61 1.6 1.4 2.21.79.61 1.62.88 2.5.83.13.05.37.06.7 0s.56-.08.67-.11.34-.09.68-.19.58-.17.71-.21c.47-.19 1.09-.31 1.86-.36h.14c.09-.03.18 0 .26.06.08.07.13.17.14.3v.74c-.48.55-1.07.84-1.78.88-.15.04-.41.11-.79.22-.38.11-.67.18-.86.23s-.45.09-.76.14c-.31.05-.6.06-.85.05-1.17.05-2.3-.25-3.38-.9-.99-.51-1.75-1.39-2.28-2.64-.2-.79-.17-1.55.1-2.3.27-.75.7-1.59 1.3-2.52Zm1.56.96c.28 0 .52.02.72.06.12.07.24.12.35.15.11.03.25.06.42.08.17.02.28.03.33.03h.8c.69-.21 1.15-.51 1.38-.9.04-.15.04-.28 0-.39s-.11-.21-.23-.29-.23-.14-.34-.18-.25-.09-.43-.15-.31-.1-.39-.13c-.32 0-.65.09-.98.27-.33.18-.6.36-.8.53-.2.17-.45.41-.76.72 0 .01-.01.04-.04.09-.03.05-.04.08-.04.11Z"/>
  </g>
  <g class="cls-1">
    <path class="cls-6" d="M328.42 230.69c.71-2.48 1.51-4.21 2.4-5.18.64-.61 1.08-.97 1.31-1.08.23-.11.73-.21 1.49-.32.03.03.11.08.24.16s.22.16.27.23c.05.07.04.16-.01.25 0 .01 0 .04-.02.07-.01.03-.02.06-.03.07 0 .01-.02.03-.03.05-.01.02-.03.03-.04.04s-.03.02-.06.04-.06.04-.09.05c-.03.01-.07.03-.11.06-.32.07-.61.23-.86.48-.25.25-.5.56-.74.92s-.43.61-.56.74c-.35.53-.64 1.13-.89 1.79s-.37 1.12-.37 1.39v1.14c0 .96.59 2.23 1.78 3.8l.38.38c.75.75 1.29 1.26 1.63 1.54.34.28.72.53 1.15.74.51.49.81.85.91 1.08s.14.62.11 1.18c0 .15-.07.27-.22.37s-.28.15-.4.15c-.28-.04-.6-.22-.97-.55-.37-.33-.66-.53-.87-.61-.81-.64-1.85-1.66-3.1-3.05s-1.89-2.4-1.92-3.01c-.25-.65-.38-1.63-.38-2.92ZM342.82 235.13c-.37.16-.73.38-1.07.66-.34.28-.59.51-.74.7-.15.19-.41.53-.76 1.02s-.58.8-.67.92c-.23.61-.56 1.11-1 1.5-.19.09-.35.14-.5.14-.29 0-.51-.13-.64-.38-.03-.04-.07-.1-.14-.18s-.13-.15-.18-.22l-.06-.1s0-.13-.01-.27v-.34c0-.09 0-.18.03-.29.02-.11.06-.19.11-.24.05-.44.09-.91.11-1.42s.02-.93 0-1.27-.03-.82-.06-1.43-.05-1.05-.06-1.3c.03-.35 0-.9-.06-1.66-.07-.76-.09-1.31-.06-1.64v-1.14c-.01-.16.06-.25.23-.28.17-.03.3-.02.41.02l.18.18c.11.11.2.21.29.31.09.1.14.19.15.27.36 1.72.53 2.86.52 3.42 0 .13.02.75.06 1.84.04 1.09.06 1.7.06 1.82v.38h.12c.11-.09.55-.54 1.34-1.35s1.44-1.36 1.96-1.67c.24-.09.51-.14.8-.14.44 0 .8.17 1.08.5.45.49.79 1.04 1 1.63.21.59.39 1.32.52 2.17.39 1.19.56 2.07.52 2.64l-.06.12c-.03.07-.05.11-.08.14-.08.09-.19.14-.34.14-.11 0-.29-.05-.54-.14-.4-.49-.74-1.12-1.02-1.88-.32-.95-.49-1.49-.5-1.64-.21-.91-.53-1.42-.94-1.54ZM354.76 234.25l.1.02c.05-.55.17-.91.34-1.1.15-.19.27-.28.36-.28h.14c.09-.01.18 0 .25.02.07.03.17.09.28.19s.19.16.23.19c.21.35.3.77.26 1.26 0 .03-.13.34-.38.94-.09.49-.11 1-.04 1.51s.25.98.56 1.39c.25.59.27 1.01.06 1.28-.05.13-.15.2-.3.2-.08 0-.18-.02-.29-.06s-.24-.09-.39-.16c-.15-.07-.25-.11-.3-.12-.48-.32-.79-.85-.92-1.58-.53.57-1.04.99-1.53 1.25s-1.14.48-1.97.67c-.44.05-.87 0-1.29-.16s-.73-.32-.93-.48c-.2-.16-.54-.45-1.02-.88-.19-.25-.34-.49-.45-.72s-.19-.47-.24-.74c-.05-.27-.08-.46-.09-.59-.01-.13-.01-.37 0-.74s.02-.62.02-.75c.08-.08.12-.21.12-.38v-.12c-.04-.2.05-.67.26-1.4.03-.05.1-.14.23-.27s.22-.2.27-.23c.12-.03.33-.01.64.04s.47.08.5.08c.11.03.19.07.25.14s.1.15.12.25c.02.1.03.19.03.27s0 .19-.01.32v.28c0 .03-.02.07-.06.14l-.06.12c-.27.57-.4 1.17-.4 1.8-.04.35.05.7.26 1.07.21.37.47.68.78.93.64.15 1.03.22 1.18.22.28 0 .56-.07.84-.22.21-.08.42-.19.61-.33s.35-.27.48-.4.27-.31.44-.55c.17-.24.28-.42.35-.53.07-.11.19-.32.36-.63.17-.31.29-.5.34-.58V234.25ZM360.02 234.11l.12.64c-.04.17.05.59.26 1.26.53-.56.91-1.07 1.12-1.52.29-.33.42-.67.38-1.02.59-.33 1.09-.46 1.52-.38.24.07.49.37.76.9v1.9l.14.12c.25-.27.58-.66.99-1.18.41-.52.66-.85.77-.98.4-.55.78-.93 1.14-1.14.56.07.98.28 1.26.64.39.65.64 1.58.76 2.78-.01.24 0 .49.04.76s.1.56.18.88c.08.32.13.57.16.76.13.37.18.71.14 1.02-.01.17-.1.29-.26.34s-.33.06-.5.02c-.29-.07-.55-.31-.76-.74-.09-.2-.18-.4-.25-.59-.07-.19-.14-.43-.2-.72s-.1-.48-.12-.57c-.02-.09-.06-.34-.11-.75s-.08-.62-.08-.65c-.09-.27-.2-.4-.32-.4-.05.03-.15.11-.3.24s-.29.27-.43.41-.29.29-.45.46c-.16.17-.25.26-.28.29l-.2.28-.74.96-.2.28c-.05.05-.15.18-.29.37-.14.19-.26.34-.36.43-.1.09-.22.17-.35.22-.23.04-.44.02-.64-.07-.2-.09-.33-.24-.38-.45-.08-.11-.12-.23-.12-.38v-2.12h-.04c-.05-.03-.09-.03-.1-.02-.92 1.29-1.63 2.39-2.14 3.28-.12.16-.21.24-.26.24-.57.07-.91-.01-1-.24-.04-.07-.09-.2-.16-.41-.07-.21-.1-.32-.1-.35v-4.86c.05-.36.23-.54.52-.54.16 0 .33.06.5.18s.3.26.38.42ZM378.58 237.01c-.11.08-.23.25-.38.5-.71.77-1.4 1.39-2.07 1.85-.67.46-1.4.68-2.19.67-.41.05-.84 0-1.28-.17-.44-.17-.79-.4-1.04-.71-.12-.19-.2-.32-.25-.39s-.12-.19-.21-.36c-.09-.17-.16-.3-.19-.41-.03-.11-.07-.23-.11-.38-.04-.15-.06-.29-.06-.43s.02-.28.06-.43c.01-.45.16-.91.45-1.38.29-.47.58-.84.87-1.12.29-.28.67-.61 1.14-1 .09-.07.16-.12.2-.16.56-.45 1.32-.68 2.28-.68.2 0 .83.05 1.9.16.03.03.12.07.27.14.15.07.26.14.33.21.07.07.07.17.02.29l.26.26c.4.17.65.34.76.5.67 1.36 1.25 2.45 1.76 3.28.05.07.22.22.51.45.29.23.46.38.51.45.11.08.24.19.39.33.15.14.28.24.39.31.11.07.23.11.36.12.01.01.1.09.26.24.01.04 0 .09 0 .15-.02.06-.04.13-.07.21-.03.08-.05.13-.06.16-.13.2-.43.36-.88.48-.16 0-.27 0-.33.03-.06.02-.15 0-.28-.04-.13-.05-.21-.08-.26-.1-.05-.02-.14-.07-.27-.15s-.23-.14-.3-.18l-.08-.04c-.33-.28-.79-.76-1.37-1.45s-.92-1.09-1.03-1.21Zm-5.82.62c.24.36.6.54 1.08.54.23 0 .54-.05.94-.16.65-.24 1.25-.66 1.78-1.26.52-.72.81-1.35.88-1.9 0-.04.03-.2.08-.47.05-.27.07-.46.06-.57-.27.07-.65.12-1.15.15s-.88.08-1.15.13c-.35.05-.7.22-1.06.49-.36.27-.63.53-.82.77s-.44.58-.76 1.02c-.23.28-.19.7.12 1.26ZM389.28 234.45c-.88.75-1.68 1.67-2.4 2.78-.03.05-.2.34-.51.87s-.52.91-.63 1.15c-.15.24-.36.33-.64.26l-.88-.9v-.62c.07-.35.14-1.02.22-2.02s.13-1.59.16-1.78c0-.07 0-.13-.02-.18l-.08-.52c-.01-.05-.02-.11-.02-.18v-.08c0-.21.07-.39.21-.52.14-.13.32-.19.53-.18.43 0 .73.13.9.4.09.36.14.83.14 1.4v.45c0 .18-.01.28-.01.29.11-.08.32-.28.65-.61s.53-.54.61-.65c.09-.12.21-.28.35-.49.14-.21.28-.39.41-.54.13-.15.29-.3.48-.45.07-.09.15-.16.24-.21.09-.05.18-.07.27-.08.09 0 .18-.01.29-.01h.32c.15-.05.3-.04.45.03.15.07.32.22.49.44.17.22.28.37.33.45.05.08.15.25.31.5.41.96.62 2.01.62 3.14l.38 1.64s.04.17.13.4.13.35.13.36c.03.36-.06.61-.26.76-.04.01-.14.05-.29.11-.15.06-.27.09-.35.09-.13 0-.21-.07-.24-.2-.03-.04-.12-.19-.27-.45s-.28-.44-.37-.55c-.25-.88-.42-1.73-.5-2.54-.04-.09-.1-.3-.17-.61s-.14-.53-.21-.65c-.28-.32-.47-.49-.56-.52-.11 0-.17 0-.2.02ZM393.52 234.63c.03-.32.39-.65 1.1-.98.21-.05.47-.08.78-.08.27 0 .83.05 1.68.16h.1c.13.01.36 0 .67-.06.31-.05.56-.06.75-.02.09.01.28.02.57.03s.52.02.7.04c.18.02.32.05.41.09.39.27.54.57.46.92-.2.24-.56.51-1.08.82-.12.01-.27 0-.44 0-.17-.02-.37-.05-.6-.1-.23-.05-.39-.08-.48-.09h-.78c-.13.01-.35.05-.65.11-.3.06-.57.11-.82.14-.25.03-.47.04-.67.03-.45.03-.85-.03-1.2-.18-.36-.36-.53-.63-.5-.82ZM402.9 234.57c-.11-.15-.23-.27-.38-.38-1.2-.29-1.75-.76-1.64-1.4-.04-.27 0-.51.12-.72.12-.21.3-.31.54-.3.13-.01.32.02.56.09s.44.08.6.03c0-.08 0-.44-.02-1.08-.01-.64-.02-1.11-.02-1.42-.01-.31.02-.77.1-1.38s.13-1 .14-1.16c-.03-.27 0-.52.08-.75s.23-.51.44-.83c.21-.32.33-.51.36-.56.29-.36.71-.54 1.26-.54.25 0 .59.05 1.02.16.52.21 1.04.54 1.55.97s1.07.97 1.66 1.6c.59.63 1.04 1.08 1.35 1.35.37.49.58.79.62.88.07.11.11.22.13.34s.03.27.02.44v.36c-.04.05-.1.17-.17.35-.07.18-.15.31-.24.4-.09.09-.2.1-.35.03-.31.08-.56-.09-.76-.52-.08-.28-.12-.58-.12-.9-.07-.07-.3-.32-.69-.75-.39-.43-.63-.69-.71-.77-.09-.07-.43-.36-1.02-.88-.59-.52-1.01-.81-1.26-.88-.41-.12-.77-.05-1.07.21s-.49.61-.57 1.05c-.2 1.79-.2 3.39 0 4.8l.26.14c.6.13 1.4.27 2.41.4 1.01.13 1.76.25 2.27.36.83.27 1.41.56 1.76.88.05.2.02.39-.11.58-.13.19-.3.29-.53.3-.21.05-.46.08-.74.08-.36 0-.9-.07-1.63-.22s-1.16-.23-1.29-.24c-.47-.09-.85-.14-1.16-.14-.33 0-.66.05-.98.14v.16l-.02.44v.16c-.05.55.02 1.25.21 2.1s.3 1.47.31 1.84c0 .09-.05.18-.14.27-.09.09-.21.18-.35.27-.14.09-.23.15-.27.18-.13-.03-.25-.07-.36-.13-.11-.06-.19-.12-.25-.17-.06-.05-.12-.14-.18-.27s-.1-.22-.12-.29c-.02-.07-.06-.19-.11-.37s-.09-.31-.12-.39c-.25-.91-.38-2.21-.38-3.92ZM411.76 234.53c.09-.59.29-1.09.6-1.52s.74-.89 1.3-1.4c.48-.24 1.1-.36 1.86-.36.93 0 1.7.16 2.3.48 1.13.71 1.94 1.3 2.42 1.78 0 .04 0 .14.02.3.01.16 0 .29-.01.4s-.07.17-.15.18c-.43.07-.86 0-1.3-.2-.11-.07-.28-.17-.52-.31-.24-.14-.42-.24-.54-.31-.12-.07-.28-.13-.48-.2-.2-.07-.39-.11-.58-.12-.11 0-.28 0-.52-.01h-.57c-.14 0-.31.03-.51.07s-.38.11-.54.2l-.12.12c-.48.64-.78 1.13-.9 1.48.03.4.03.76 0 1.07-.03.31-.03.67 0 1.07.02.4.07.75.15 1.06.09.16.15.32.16.47.01.15-.02.33-.1.53s-.14.34-.17.41-.12.23-.27.47c-.12.16-.27.24-.44.24-.19 0-.38-.08-.58-.24-.32-.2-.57-.57-.76-1.12 0-2.11.09-3.62.26-4.54ZM419.92 228.75c.08-.2.22-.36.43-.49s.42-.18.65-.15c.08-.01.15-.01.22 0s.14.04.21.08c.07.04.13.07.17.1.04.03.1.09.17.18s.12.15.15.17.08.09.16.21l.12.16c.05.13.31.43.76.88.09.13.14.29.15.47 0 .18-.04.32-.15.43h-.44c-.23.04-.46.03-.69-.04-.23-.07-.54-.2-.92-.4s-.58-.31-.61-.32c-.23-.13-.38-.32-.45-.57-.07-.25-.05-.48.07-.71Zm1.28 10.14c-.03-.16-.07-.51-.12-1.05s-.11-1.11-.16-1.7c-.05-.59-.09-.94-.1-1.05-.03-.36-.03-.74 0-1.14.2-.35.53-.47 1-.38.17.08.35.33.52.76 0 .28.02.57.07.88.05.31.09.57.14.78.05.21.12.49.21.84s.16.61.2.8c0 .11 0 .28-.03.51-.02.23-.04.46-.06.67-.02.21-.03.33-.03.34-.01.04-.03.11-.05.22-.02.11-.04.19-.06.26-.02.07-.05.14-.1.21s-.1.13-.17.17c-.36.07-.65-.01-.88-.24-.23-.4-.35-.69-.38-.88ZM426.08 234.19c.96-1.23 2.01-2.03 3.16-2.4.73-.09 1.12-.14 1.16-.14.83.03 1.55.28 2.16.75.61.47.94 1.12.98 1.93.01.71-.27 1.35-.85 1.94s-1.22.91-1.93.96c-.27.09-.55.14-.86.14-.69 0-1.46-.25-2.3-.76-.25-.25-.42-.38-.5-.38-.05-.03-.1-.03-.14 0-.44.67-.65 1.17-.64 1.52.15.87.61 1.6 1.4 2.21s1.62.88 2.5.83c.13.05.37.06.7 0s.56-.08.67-.11.34-.09.68-.19.58-.17.71-.21c.47-.19 1.09-.31 1.86-.36h.14c.09-.03.18 0 .26.06.08.07.13.17.14.3v.74c-.48.55-1.07.84-1.78.88-.15.04-.41.11-.79.22-.38.11-.67.18-.86.23s-.45.09-.76.14c-.31.05-.6.06-.85.05-1.17.05-2.3-.25-3.38-.9-.99-.51-1.75-1.39-2.28-2.64-.2-.79-.17-1.55.1-2.3.27-.75.7-1.59 1.3-2.52Zm1.56.96c.28 0 .52.02.72.06.12.07.24.12.35.15.11.03.25.06.42.08.17.02.28.03.33.03h.8c.69-.21 1.15-.51 1.38-.9.04-.15.04-.28 0-.39s-.11-.21-.23-.29-.23-.14-.34-.18-.25-.09-.43-.15-.31-.1-.39-.13c-.32 0-.65.09-.98.27-.33.18-.6.36-.8.53-.2.17-.45.41-.76.72 0 .01-.01.04-.04.09-.03.05-.04.08-.04.11ZM440.48 234.45c-.88.75-1.68 1.67-2.4 2.78-.03.05-.2.34-.51.87s-.52.91-.63 1.15c-.15.24-.36.33-.64.26l-.88-.9v-.62c.07-.35.14-1.02.22-2.02s.13-1.59.16-1.78c0-.07 0-.13-.02-.18l-.08-.52c-.01-.05-.02-.11-.02-.18v-.08c0-.21.07-.39.21-.52.14-.13.32-.19.53-.18.43 0 .73.13.9.4.09.36.14.83.14 1.4v.74c.11-.08.32-.28.65-.61.33-.33.53-.54.61-.65.09-.12.21-.28.35-.49.14-.21.28-.39.41-.54.13-.15.29-.3.48-.45.07-.09.15-.16.24-.21.09-.05.18-.07.27-.08.09 0 .18-.01.29-.01h.32c.15-.05.3-.04.45.03s.32.22.49.44c.17.22.28.37.33.45.05.08.15.25.31.5.41.96.62 2.01.62 3.14l.38 1.64s.04.17.13.4.13.35.13.36c.03.36-.06.61-.26.76-.04.01-.14.05-.29.11-.15.06-.27.09-.35.09-.13 0-.21-.07-.24-.2-.03-.04-.12-.19-.27-.45-.15-.26-.28-.44-.37-.55-.25-.88-.42-1.73-.5-2.54-.04-.09-.1-.3-.17-.61s-.14-.53-.21-.65c-.28-.32-.47-.49-.56-.52-.11 0-.17 0-.2.02ZM444.42 236.47v-.14c.13-1.07.64-2.01 1.52-2.83.88-.82 1.85-1.14 2.9-.97.49.03.94.21 1.33.56s.58.75.57 1.22c0 .13-.04.22-.12.25s-.19.04-.34.02c-.15-.02-.25-.02-.3-.01-.68-.24-1.31-.33-1.9-.26-1.36.69-2.03 1.58-2.02 2.66-.11.44-.01.79.28 1.04.29.25.66.38 1.1.38.31 0 .57-.05.78-.16 1.43-.75 2.61-2.18 3.54-4.3 0-.29 0-.56.02-.8l.08-2.44c.01-.24.02-.51.02-.8.12-1.29.25-2.14.38-2.54.01-.19.05-.44.1-.75s.11-.64.17-.98c.06-.34.1-.56.11-.67.05-.39.27-.64.64-.76.21.01.45.08.7.21.25.13.39.27.42.43.07.16.11.34.13.54.02.2.02.38 0 .54-.01.16-.01.35 0 .56-.01.09 0 .35.05.77.05.42.07.67.07.75 0 .49-.09 1.46-.26 2.9-.04.28-.17.68-.38 1.2-.21.52-.34.92-.38 1.2v1.28s.02.03.02.06l.1.24.02.06.38 1.28c.08.32.18.63.3.93.12.3.27.67.46 1.1.19.43.31.72.38.87.03.41-.06.7-.26.86-.05.08-.13.12-.22.12-.07 0-.29-.11-.66-.34-.13-.13-.26-.29-.39-.47s-.23-.34-.31-.49-.18-.35-.29-.61c-.11-.26-.19-.45-.23-.56-.04-.11-.11-.32-.22-.62s-.17-.48-.2-.55c-.17.11-.46.42-.85.93s-.62.8-.67.85c-.96.99-1.85 1.61-2.66 1.88-.81.11-1.31.16-1.48.16-.65 0-1.17-.17-1.56-.52-.19-.15-.35-.32-.5-.52-.21-.35-.34-.79-.39-1.34s-.04-1.02.01-1.42ZM457.2 236.35c.01-.8.06-1.88.14-3.23.08-1.35.13-2.3.14-2.83-.01-.65.01-1.87.08-3.66s.08-3.09.04-3.92c.11-.35.31-.52.6-.52.37 0 .68.21.92.64 0 .17 0 .33.02.48l.08 1.44c.01.15.02.31.02.48-.03 1.25-.11 3.09-.25 5.5s-.22 4.12-.25 5.12c.01.19.03.47.06.86s.05.67.07.85.05.41.1.68c.05.27.11.52.2.74.09.22.2.44.33.65.01.19-.03.35-.14.5-.17.11-.39.16-.66.16-.31 0-.55-.05-.72-.16-.23-.24-.4-.54-.52-.9s-.19-.64-.22-.84c-.03-.2-.04-.57-.04-1.11v-.93ZM463.34 246.99v-.24c.11-.25.41-1.04.91-2.36s.83-2.18.99-2.58c.35-.88.55-1.58.62-2.1l-.28-.02c-.19-.01-.3-.01-.34 0-.37.09-.67.14-.88.14-.4 0-.78-.13-1.14-.4-.73-.29-1.33-1.05-1.78-2.28-.09-.39-.14-.8-.14-1.23s.02-.82.07-1.15c.05-.33.11-.74.18-1.23.07-.49.12-.89.15-1.21.12-.44.45-.66.98-.66.23 0 .45.05.66.16.33.23.47.5.4.82-.01.09-.15.33-.4.7-.21.65-.29 1.63-.24 2.92.01.39.2.72.55.99.35.27.74.46 1.15.55.16-.01.31-.05.45-.1s.28-.14.43-.25.26-.21.34-.28.21-.21.39-.4c.18-.19.3-.32.35-.39.24-.28.46-.63.65-1.05s.33-.75.41-.98c.08-.23.19-.61.34-1.13.01-.07.04-.17.07-.31.03-.14.06-.25.09-.34.03-.09.07-.18.13-.27.06-.09.13-.17.21-.22.32-.17.64-.26.96-.26.37 0 .69.13.94.38.28.4.15.99-.38 1.78-.25.51-.67 1.27-1.26 2.28-.05.07-.13.2-.23.41-.1.21-.15.32-.15.35-.44 1.16-.73 2.05-.88 2.66-.16.44-.45 1.24-.87 2.4s-.76 2.08-1.03 2.76c-.12.24-.2.49-.25.75s-.09.59-.13 1c-.04.41-.09.76-.14 1.05-.03.36-.15.61-.38.76-.2.08-.41.12-.62.12s-.39-.04-.52-.12c-.25-.51-.38-.98-.38-1.42ZM471.3 239.73s.05-.18.14-.46c.67-.67 1.3-1 1.9-1 .72-.29 1.22-.83 1.51-1.6s.38-1.53.27-2.28c-.05-.59-.2-1.27-.44-2.04s-.52-1.45-.84-2.04c-.15-.36-.5-1.08-1.05-2.16s-.92-1.71-1.09-1.88l-.04-.02-.06-.06-.32-.22s-.03-.03-.06-.04l-.04-.04c-.19-.17-.32-.33-.4-.48-.08-.15-.12-.29-.12-.43s0-.3.02-.49c0-.09.14-.2.43-.33s.46-.19.51-.19c.35.15.67.36.98.63s.57.55.79.82.45.64.69 1.09.43.83.57 1.14c.14.31.33.74.56 1.29.23.55.41.96.53 1.23.47 1.16.8 2.2.99 3.11.19.91.2 1.86 0 2.83-.07.52-.32 1.21-.76 2.08-.44.87-.99 1.43-1.64 1.7-.19.08-.39.17-.62.28-.23.11-.39.18-.48.22-.09.04-.2.08-.32.13s-.21.08-.28.09c-.07.01-.14.03-.23.04-.09.01-.19.02-.31.02-.09 0-.19-.02-.3-.05-.11-.03-.22-.12-.33-.25-.11-.13-.17-.3-.17-.5v-.14Z"/>
  </g>
  <path class="cls-2" d="M222.47 183.4c9.91 3.36 50.36 16.12 60.38 19.22m-61.93-19.74c9.69 2.97 50.95 14.36 61.09 17.74"/>
  <path class="cls-2" d="M257.05 202.05c10.79-.15 18.6-1.12 24.96-1.43m-24.96 1.43c7.16-.64 12.56-.14 24.96-1.43M261.97 185.67c9 5.82 15.02 10.83 20.04 14.95m-20.04-14.95c5.78 3.74 9.86 8.63 20.04 14.95"/>
</svg>
